<?xml version="1.0" encoding="utf-8"?>
<!-- Generator: Adobe Illustrator 23.0.1, SVG Export Plug-In . SVG Version: 6.00 Build 0)  -->
<svg version="1.1" id="Layer_1" xmlns="http://www.w3.org/2000/svg" xmlns:xlink="http://www.w3.org/1999/xlink" x="0px" y="0px"
	 viewBox="0 0 70 431" style="enable-background:new 0 0 70 431;" xml:space="preserve">
<style type="text/css">
	.st0{fill:#202735;}
	.st1{fill:#0557A4;}
	.st2{fill:#CC2730;}
	.st3{fill:#126E51;}
	.st4{fill:#0166CC;}
	.st5{fill:#0988D1;}
	.st6{fill:#EA5F2F;}
	.st7{fill:#FFD101;}
	.st8{fill:#FEFEFE;}
	.st9{fill:#FFE40A;}
	.st10{fill:#FFFFFF;}
	.st11{fill:#FFD300;}
	.st12{fill-rule:evenodd;clip-rule:evenodd;fill:#FFFFFF;}
	.st13{fill:#FFD200;}
	.st14{fill:#C62127;}
	.st15{fill-rule:evenodd;clip-rule:evenodd;fill:#C7CBCC;}
	.st16{fill-rule:evenodd;clip-rule:evenodd;fill:url(#SVGID_1_);}
	.st17{fill-rule:evenodd;clip-rule:evenodd;fill:#B0B3B6;}
	.st18{fill-rule:evenodd;clip-rule:evenodd;fill:url(#SVGID_2_);}
	.st19{fill-rule:evenodd;clip-rule:evenodd;fill:url(#SVGID_3_);}
	.st20{fill-rule:evenodd;clip-rule:evenodd;fill:url(#SVGID_4_);}
	.st21{fill:url(#SVGID_5_);}
	.st22{fill:url(#SVGID_6_);}
	.st23{fill:url(#SVGID_7_);}
	.st24{fill:url(#SVGID_8_);}
	.st25{fill-rule:evenodd;clip-rule:evenodd;fill:url(#SVGID_9_);}
	.st26{fill-rule:evenodd;clip-rule:evenodd;fill:url(#SVGID_10_);}
	.st27{fill:url(#SVGID_11_);}
	.st28{fill:url(#SVGID_12_);}
	.st29{fill:url(#SVGID_13_);}
	.st30{fill:url(#SVGID_14_);}
	.st31{fill:url(#SVGID_15_);}
	.st32{fill:url(#SVGID_16_);}
	.st33{fill-rule:evenodd;clip-rule:evenodd;fill:url(#SVGID_17_);}
	.st34{fill-rule:evenodd;clip-rule:evenodd;fill:url(#SVGID_18_);}
	.st35{fill:url(#SVGID_19_);}
	.st36{fill:url(#SVGID_20_);}
	.st37{fill:url(#SVGID_21_);}
	.st38{fill:url(#SVGID_22_);}
	.st39{fill-rule:evenodd;clip-rule:evenodd;fill:url(#SVGID_23_);}
	.st40{fill-rule:evenodd;clip-rule:evenodd;fill:url(#SVGID_24_);}
	.st41{fill:url(#SVGID_25_);}
	.st42{fill:url(#SVGID_26_);}
	.st43{fill:url(#SVGID_27_);}
	.st44{fill-rule:evenodd;clip-rule:evenodd;fill:url(#SVGID_28_);}
	.st45{fill-rule:evenodd;clip-rule:evenodd;fill:url(#SVGID_29_);}
	.st46{fill-rule:evenodd;clip-rule:evenodd;fill:url(#SVGID_30_);}
	.st47{fill:url(#SVGID_31_);}
	.st48{fill-rule:evenodd;clip-rule:evenodd;fill:url(#SVGID_32_);}
	.st49{fill-rule:evenodd;clip-rule:evenodd;fill:url(#SVGID_33_);}
	.st50{fill:url(#SVGID_34_);}
	.st51{fill:url(#SVGID_35_);}
	.st52{fill:url(#SVGID_36_);}
	.st53{fill:url(#SVGID_37_);}
	.st54{fill:url(#SVGID_38_);}
	.st55{fill:url(#SVGID_39_);}
	.st56{fill:url(#SVGID_40_);}
	.st57{fill-rule:evenodd;clip-rule:evenodd;fill:url(#SVGID_41_);}
	.st58{fill-rule:evenodd;clip-rule:evenodd;fill:url(#SVGID_42_);}
	.st59{fill:url(#SVGID_43_);}
	.st60{fill:url(#SVGID_44_);}
	.st61{fill:url(#SVGID_45_);}
	.st62{opacity:0.6;fill:url(#SVGID_46_);enable-background:new    ;}
	.st63{fill:url(#SVGID_47_);}
	.st64{fill:url(#SVGID_48_);}
	.st65{fill:url(#SVGID_49_);}
	.st66{fill-rule:evenodd;clip-rule:evenodd;fill:url(#SVGID_50_);}
	.st67{fill-rule:evenodd;clip-rule:evenodd;fill:url(#SVGID_51_);}
	.st68{fill-rule:evenodd;clip-rule:evenodd;fill:url(#SVGID_52_);}
	.st69{fill:url(#SVGID_53_);}
	.st70{fill:url(#SVGID_54_);}
	.st71{fill-rule:evenodd;clip-rule:evenodd;fill:url(#SVGID_55_);}
	.st72{fill-rule:evenodd;clip-rule:evenodd;fill:url(#SVGID_56_);}
	.st73{fill:url(#SVGID_57_);}
	.st74{fill:url(#SVGID_58_);}
	.st75{fill:#F3F3F3;}
	.st76{fill:#262F68;}
	.st77{fill:#E92B2C;}
	.st78{fill:#FF6600;}
	.st79{fill-rule:evenodd;clip-rule:evenodd;fill:#FEDC00;}
	.st80{fill-rule:evenodd;clip-rule:evenodd;fill:#0956A4;}
	.st81{fill:#D42A28;}
</style>
<g>
	<path class="st0" d="M70,252.2c-23,0-46,0-69.1,0c-0.7,0-0.7-0.2-0.7-0.8c0-11.2,0-22.3,0-33.5c0-0.6,0.1-0.8,0.7-0.8
		c23,0,46,0,69.1,0c0.2,0.3,0.1,0.6,0.1,0.9c0,11.1,0,22.2,0,33.3C70.1,251.7,70.2,252,70,252.2z"/>
	<path class="st0" d="M70,252.2c0-11.7,0-23.3,0-35c0.3-0.1,0.2,0.2,0.2,0.3c0,11.5,0,23,0,34.4C70.2,252.1,70.3,252.3,70,252.2z"/>
</g>
<g>
	<path class="st1" d="M70,394.3c-23,0-46,0-69.1,0c-0.7,0-0.7-0.2-0.7-0.8c0-11.2,0-22.3,0-33.5c0-0.6,0.1-0.8,0.7-0.8
		c23,0,46,0,69.1,0c0.2,0.3,0.1,0.6,0.1,0.9c0,11.1,0,22.2,0,33.3C70.1,393.7,70.2,394,70,394.3z"/>
	<path class="st1" d="M70,394.3c0-11.7,0-23.3,0-35c0.3-0.1,0.2,0.2,0.2,0.3c0,11.5,0,23,0,34.4C70.2,394.1,70.3,394.3,70,394.3z"/>
</g>
<path class="st2" d="M70.1,288c-23.1,0-46.1,0-69.2,0c-0.7,0-0.7-0.2-0.7-0.8c0-11.2,0-22.3,0-33.5c0-0.6,0.1-0.8,0.7-0.8
	c23.1,0,46.1,0,69.2,0c0.2,0.3,0.1,0.6,0.1,0.9c0,11.1,0,22.2,0,33.3C70.2,287.4,70.3,287.7,70.1,288z"/>
<g>
	<path class="st3" d="M70,109.2c-23,0-46,0-69.1,0c-0.7,0-0.7-0.2-0.7-0.8c0-11.2,0-22.3,0-33.5c0-0.6,0.1-0.8,0.7-0.8
		c23,0,46,0,69.1,0c0.2,0.3,0.1,0.6,0.1,0.9c0,11.1,0,22.2,0,33.3C70.1,108.6,70.2,108.9,70,109.2z"/>
	<path class="st3" d="M70,109.2c0-11.7,0-23.3,0-35c0.3-0.1,0.2,0.2,0.2,0.3c0,11.5,0,23,0,34.4C70.2,109,70.3,109.2,70,109.2z"/>
</g>
<g>
	<path class="st4" d="M70,72.2c-23,0-46,0-69.1,0c-0.7,0-0.7-0.2-0.7-0.8c0-11.2,0-22.3,0-33.5c0-0.6,0.1-0.8,0.7-0.8
		c23,0,46,0,69.1,0c0.2,0.3,0.1,0.6,0.1,0.9c0,11.1,0,22.2,0,33.3C70.1,71.6,70.2,71.9,70,72.2z"/>
	<path class="st4" d="M70,72.2c0-11.7,0-23.3,0-35c0.3-0.1,0.2,0.2,0.2,0.3c0,11.5,0,23,0,34.4C70.2,72,70.3,72.2,70,72.2z"/>
</g>
<g>
	<path class="st5" d="M70,323.5c-23,0-46,0-69.1,0c-0.7,0-0.7-0.2-0.7-0.8c0-11.2,0-22.3,0-33.5c0-0.6,0.1-0.8,0.7-0.8
		c23,0,46,0,69.1,0c0.2,0.3,0.1,0.6,0.1,0.9c0,11.1,0,22.2,0,33.3C70.1,322.9,70.2,323.2,70,323.5z"/>
	<path class="st5" d="M70,323.5c0-11.7,0-23.3,0-35c0.3-0.1,0.2,0.2,0.2,0.3c0,11.5,0,23,0,34.4C70.2,323.3,70.3,323.5,70,323.5z"/>
</g>
<g>
	<path class="st6" d="M70,35.2c-23,0-46,0-69.1,0c-0.7,0-0.7-0.2-0.7-0.8c0-11.2,0-22.3,0-33.5c0-0.6,0.1-0.8,0.7-0.8
		c23,0,46,0,69.1,0c0.2,0.3,0.1,0.6,0.1,0.9c0,11.1,0,22.2,0,33.3C70.1,34.6,70.2,34.9,70,35.2z"/>
	<path class="st6" d="M70,35.2c0-11.7,0-23.3,0-35c0.3-0.1,0.2,0.2,0.2,0.3c0,11.5,0,23,0,34.4C70.2,35,70.3,35.3,70,35.2z"/>
</g>
<g>
	<path class="st7" d="M70,181c-23,0-46,0-69.1,0c-0.7,0-0.7-0.2-0.7-0.8c0-11.2,0-22.3,0-33.5c0-0.6,0.1-0.8,0.7-0.8
		c23,0,46,0,69.1,0c0.2,0.3,0.1,0.6,0.1,0.9c0,11.1,0,22.2,0,33.3C70.1,180.4,70.2,180.7,70,181z"/>
	<path class="st7" d="M70,181c0-11.7,0-23.3,0-35c0.3-0.1,0.2,0.2,0.2,0.3c0,11.5,0,23,0,34.4C70.2,180.8,70.3,181,70,181z"/>
</g>
<g>
	<path d="M70,217c-23,0-46,0-69.1,0c-0.7,0-0.7-0.2-0.7-0.8c0-11.2,0-22.3,0-33.5c0-0.6,0.1-0.8,0.7-0.8c23,0,46,0,69.1,0
		c0.2,0.3,0.1,0.6,0.1,0.9c0,11.1,0,22.2,0,33.3C70.1,216.4,70.2,216.7,70,217z"/>
	<path d="M70,217c0-11.7,0-23.3,0-35c0.3-0.1,0.2,0.2,0.2,0.3c0,11.5,0,23,0,34.4C70.2,216.8,70.3,217,70,217z"/>
</g>
<g>
	<path d="M70,145c-23,0-46,0-69.1,0c-0.7,0-0.7-0.2-0.7-0.8c0-11.2,0-22.3,0-33.5c0-0.6,0.1-0.8,0.7-0.8c23,0,46,0,69.1,0
		c0.2,0.3,0.1,0.6,0.1,0.9c0,11.1,0,22.2,0,33.3C70.1,144.4,70.2,144.7,70,145z"/>
	<path class="st8" d="M70,145c0-11.7,0-23.3,0-35c0.3-0.1,0.2,0.2,0.2,0.3c0,11.5,0,23,0,34.4C70.2,144.8,70.3,145.1,70,145z"/>
</g>
<g>
	<path class="st9" d="M37.7,95.6c0.9,0,1.4-0.3,1.4-0.9c0-0.6-0.5-1-1.4-1c-0.3,0-0.8,0-1.2,0.1v-2.1c0.4,0,0.7,0.1,1.1,0.1
		c1,0,1.4-0.3,1.4-0.9c0-0.6-0.4-0.9-1.3-0.9c-0.6,0-1.3,0.2-2.2,0.4v-2.2c0.8-0.3,1.8-0.4,2.9-0.4c2.5,0,3.9,1.1,3.9,2.8
		c0,1.1-0.7,1.8-1.9,2.1c1.3,0.3,2,1,2,2.2c0,1.8-1.5,2.8-4.3,2.8c-0.9,0-1.9-0.1-2.8-0.4v-2.2C36.2,95.4,37,95.6,37.7,95.6
		L37.7,95.6L37.7,95.6z M48.2,91.3c2,0,3.3,1.2,3.3,3.1c0,2-1.5,3.3-3.9,3.3c-2.8,0-4.6-1.8-4.6-4.7c0-3.3,1.9-5.2,5.3-5.2
		c0.7,0,1.5,0.1,2.3,0.3v2.2c-0.7-0.2-1.5-0.3-2.2-0.3c-1.5,0-2.2,0.6-2.2,2C46.7,91.5,47.3,91.3,48.2,91.3L48.2,91.3L48.2,91.3z
		 M48.4,94.3c0-0.8-0.4-1.3-1.1-1.3c-0.6,0-1.1,0.5-1.1,1.3c0,0.8,0.4,1.3,1.1,1.3C48,95.6,48.4,95.1,48.4,94.3z M52.4,88h6.4v2.3
		h-3.4v1.4c0.3,0,0.5,0,0.5,0c2.1,0,3.3,1.1,3.3,3c0,1.9-1.4,3.1-4.1,3.1c-1,0-1.9-0.1-2.8-0.4v-2.2c0.7,0.2,1.4,0.3,1.9,0.3
		c1.1,0,1.7-0.4,1.7-1.1c0-0.8-0.6-1.2-1.9-1.2c-0.5,0-1,0.1-1.6,0.2L52.4,88L52.4,88z"/>
	<path class="st10" d="M11.2,87.3h3.3v4c0.5-0.7,1.1-1,2-1c1.9,0,3,1.4,3,3.8c0,2.3-1.1,3.7-2.9,3.7c-1.1,0-1.8-0.4-2.3-1.3v1.2h-3
		V87.3z M14.4,94c0,1.1,0.2,1.6,0.8,1.6c0.6,0,0.8-0.5,0.8-1.6c0-1.1-0.2-1.6-0.8-1.6S14.4,93,14.4,94L14.4,94z M27.8,94.7h-4.5
		c0.1,0.8,0.7,1.1,1.8,1.1c0.8,0,1.6-0.1,2.3-0.5v1.8c-0.8,0.3-1.8,0.5-3,0.5c-2.8,0-4.3-1.4-4.3-3.8c0-2.3,1.5-3.8,3.9-3.8
		c2.7,0,3.8,1.3,3.8,4.1L27.8,94.7L27.8,94.7L27.8,94.7z M25,93.3v-0.2c0-0.8-0.3-1.3-0.8-1.3c-0.6,0-0.9,0.5-0.9,1.3v0.2H25
		L25,93.3z M34.2,90.4v2.1h-1.5v1.7c0,0.9,0.1,1.3,0.8,1.3c0.2,0,0.4,0,0.7-0.1v2c-0.7,0.2-1.4,0.3-2.2,0.3c-0.9,0-1.6-0.3-2-0.8
		c-0.5-0.7-0.5-1.5-0.5-2.7v-1.7h-1.2v-2.1h1.2v-1.6l3.3-1.1v2.6L34.2,90.4L34.2,90.4z"/>
</g>
<path class="st10" d="M55.3,52.7h-2.1l-0.1,0.3c-0.5-0.4-1.1-0.5-1.8-0.5c-1.8,0-3.4,1.7-3.4,3.6c0,2.2,1.6,2.9,2.7,2.9
	c0.4,0,0.9-0.1,1.3-0.3l0,0.1H54L55.3,52.7z M52.6,55.9c-0.1,0.8-0.7,1.4-1.4,1.4c-0.5,0-1.3-0.3-1.3-1.3c0-0.9,0.6-1.6,1.4-1.6
	C52,54.4,52.7,54.9,52.6,55.9L52.6,55.9z M34.2,58.9h-2.3l-0.8-1.5l-1.3,1.5h-2.6l2.8-3.2l-1.6-3h2.3l0.7,1.6l1.2-1.6h2.6l-2.8,3.2
	C32.4,55.9,34.2,58.9,34.2,58.9z M47.6,54.6c0,0.3,0,0.5-0.1,0.7L46.8,59h-2.1l0.7-3.5c0.1-0.4-0.3-0.9-0.8-0.9s-0.8,0.2-0.9,1.1
	L43,59h-2.1l0.7-3.5c0.1-0.4-0.2-0.9-0.8-0.9c-0.4,0-0.8,0.2-1,1.1L39.2,59h-2.1l1.4-6.2h1.9l-0.1,0.6c0.4-0.5,0.9-0.8,1.6-0.8
	c0.8,0,1.4,0.4,1.7,0.9c0.5-0.6,1.1-0.9,1.9-0.9C46.8,52.6,47.6,53.4,47.6,54.6z M61.2,54.6c0,0.3,0,0.5-0.1,0.7L60.4,59h-2.2
	l0.7-3.5c0-0.1,0-0.2,0-0.3c0-0.4-0.2-0.6-0.6-0.6s-0.8,0.2-1,1.1L56.7,59h-2.1l1.3-6.2h1.9l-0.1,0.6c0.4-0.5,1-0.8,1.7-0.8
	C60.6,52.6,61.2,53.4,61.2,54.6L61.2,54.6z M24.7,55.6c0,1.9-1.5,3.5-3.5,3.5h-0.1c-1.7,0-3.2-1.1-3.2-3c0-1.9,1.5-3.5,3.5-3.5h0.1
	C23.2,52.6,24.7,53.7,24.7,55.6z M20,56c0,0.8,0.5,1.3,1.2,1.3c0.8,0,1.4-0.7,1.4-1.6c0-0.8-0.5-1.3-1.2-1.3C20.6,54.4,20,55,20,56z
	 M17,52.7l0.3-1.2h-1.9l-1,4.8c-0.4,1.9,0.8,2.8,2.3,2.8c0.2,0,0.4,0,0.5-0.1l0.4-1.8h-0.3c-0.7,0-1.1-0.3-0.9-0.9l0.5-2.2h1.2
	l0.3-1.4L17,52.7z M24.6,58.9l1.3-6.2h2.1l-1.3,6.2H24.6z M34.7,58.9l1.3-6.2h2.1l-1.3,6.2H34.7z M7.2,58.9l0.5-2.3h2
	c0.3,0,0.5-0.1,0.7-0.4c0.2-0.3,0.2-0.6,0.1-0.9l-0.6-3c-0.2-1.1,0.1-2.2,0.9-2.8c0.4-0.3,0.9-0.5,1.4-0.5h3.3l-0.5,2.3h-1.8
	c-0.3,0-0.6,0-0.9,0.3c-0.1,0.1-0.1,0.2-0.1,0.3c-0.1,0.3-0.1,0.5,0,0.8c0,0,0.5,2.4,0.5,2.4c0.1,0.3,0.1,0.6,0.1,0.9
	c0,0.7-0.2,1.4-0.6,1.9c-0.4,0.5-1,0.8-1.6,0.9c-0.2,0-0.4,0-0.5,0H7.2z M26.2,50.9L26,52.1h2l0.3-1.1H26.2z M36.4,50.9l-0.2,1.1
	h2.1l0.2-1.1H36.4z"/>
<g>
	<g>
		<g>
			<path class="st10" d="M15.8,22.7l6-10.8l1.1-2l-2.6,0.7c-0.3,0.1-0.5,0.2-0.7,0.4l-0.1,0.2l-0.2,0.4L14.8,20
				c0,0.1-0.1,0.1-0.2,0.1c-0.1,0-0.1-0.1-0.1-0.1L14,15.5c0-0.2-0.2-0.4-0.3-0.5L13,14.7L12,14.2c-0.2-0.1-0.4-0.1-0.7,0l-1.6,1.2
				l1.4,0.8c0,0,0.4,0.3,0.5,0.6l0.8,6.2c0,0.3,0.3,0.5,0.6,0.4h1.5C14.8,23.4,15.4,23.4,15.8,22.7L15.8,22.7z"/>
		</g>
		<path class="st10" d="M21.3,21.5l1.3-0.4c0.3-0.1,0.6,0,0.8,0.2c0.2,0.3,0.7,0.5,1.2,0.5c0.8,0,1.3-0.3,1.4-0.8
			c0.1-0.8-1.7-0.4-2.9-0.9c-0.6-0.3-1.1-0.8-1-1.8c0.2-1.3,1.7-2.3,3.3-2.3c1.6,0,2.5,0.8,2.7,1.9l-1.2,0.3c-0.3,0.1-0.6,0-0.8-0.3
			c-0.2-0.3-0.5-0.4-0.9-0.4c-0.6,0-1.1,0.4-1.2,0.8c-0.2,0.9,1.7,0.5,2.9,0.9c0.6,0.3,1.2,0.8,1,1.8c-0.2,1.5-1.8,2.3-3.7,2.3
			C22.8,23.4,21.5,22.7,21.3,21.5z"/>
		<path class="st10" d="M40.8,16.4l-0.9,6.3c-0.1,0.3-0.3,0.6-0.6,0.6H38l0.1-0.8c-0.6,0.6-1.3,0.9-2.2,0.9c-1.6,0-2.9-1.4-2.5-3.5
			c0.3-2.1,1.8-3.5,3.6-3.5c0.9,0,1.5,0.3,1.9,0.9l0-0.2c0.1-0.3,0.3-0.6,0.6-0.6L40.8,16.4L40.8,16.4z M38.5,19.9
			c0.2-1-0.5-1.8-1.4-1.8s-1.8,0.8-1.9,1.8s0.4,1.8,1.4,1.8C37.5,21.7,38.3,20.9,38.5,19.9z"/>
		<path class="st10" d="M43.1,17.5c0.5-0.6,1.3-1,2.2-1c1.6,0,2.9,1.4,2.5,3.5c-0.3,2.1-1.8,3.5-3.6,3.5c-0.9,0-1.6-0.4-1.9-1
			l-0.1,0.4c0,0.3-0.3,0.6-0.6,0.6h-1.3l1.3-8.5l0.1-1c0-0.2,0.2-0.4,0.4-0.5l1.6-0.4l-0.3,1.9L43.1,17.5z M46.1,19.9
			c0.2-1-0.4-1.8-1.4-1.8s-1.8,0.8-1.9,1.8c-0.1,1.1,0.5,1.8,1.4,1.8C45.1,21.8,45.9,20.9,46.1,19.9z"/>
		<path class="st10" d="M54.8,20.3h-5c0.1,0.9,0.7,1.5,1.5,1.5c0.5,0,0.9-0.1,1.3-0.4c0.2-0.2,0.5-0.2,0.7,0l0.7,0.6
			c-0.7,0.9-1.7,1.3-3,1.3c-1.9,0-3.2-1.6-2.9-3.6c0.3-2,1.7-3.7,3.9-3.7C54,16.1,55.3,17.9,54.8,20.3z M53.2,19
			c-0.1-0.8-0.6-1.3-1.4-1.3c-0.8,0-1.4,0.5-1.7,1.3H53.2z"/>
		<path class="st10" d="M31.6,18.2l-0.4,2.4c-0.1,0.7,0.2,1.2,1,1.2c0.3,0,0.6-0.1,0.8-0.2l-0.2,1.2c-0.1,0.3-0.2,0.5-0.5,0.5
			c-0.3,0.1-0.7,0.1-0.9,0.1c-1.7,0-2.5-1-2.2-2.5l0.5-2.7h-1.3l0.2-1.1c0.1-0.3,0.3-0.6,0.7-0.6h0.7l0,0l0.2-1
			c0-0.2,0.2-0.4,0.4-0.5l1.8-0.4l-0.3,1.9h0h0.2h1.7l-0.6,1.4c-0.1,0.2-0.3,0.3-0.5,0.3h-0.9L31.6,18.2z"/>
		<path class="st10" d="M58.5,18.2l-0.4,2.4c-0.1,0.7,0.2,1.2,1,1.2c0.3,0,0.6-0.1,0.8-0.2l-0.2,1.2c-0.1,0.3-0.2,0.5-0.5,0.5
			c-0.3,0.1-0.7,0.1-0.9,0.1c-1.7,0-2.5-1-2.2-2.5l0.5-2.7h-1.3l0.2-1.1c0.1-0.3,0.3-0.6,0.7-0.6h0.7l0,0l0.2-1
			c0-0.2,0.2-0.4,0.4-0.5l1.8-0.4l-0.3,1.9h0H59h1.7l-0.6,1.4c-0.1,0.2-0.3,0.3-0.5,0.3h-0.9L58.5,18.2z"/>
		<path class="st10" d="M21.7,16.5l-1,6.3c-0.1,0.3-0.3,0.6-0.7,0.6h-1.5l0.8-5l0.2-1c0-0.2,0.2-0.4,0.4-0.5L21.7,16.5l-0.3,1.9"/>
	</g>
</g>
<g>
	<polygon class="st10" points="42.2,125.8 39.9,135.1 43.6,135.1 46,125.5 	"/>
	<path class="st10" d="M54.4,125.4c-1.1-0.1-2.8,0.2-3.7,0.9c0-0.4-0.1-0.6-0.2-0.9l-3.3,0.4c0.1,0.9,0,1.9-0.3,3.3l-1.5,6h3.7
		l1.5-6.2c0.4-0.5,1-0.9,1.5-0.9c0.6,0,0.8,0.5,0.6,1.2l-1.4,5.9h3.7l1.6-6.4C57,127.1,56.5,125.6,54.4,125.4z"/>
	<path class="st11" d="M46.6,122.8c0-1-0.9-1.8-2-1.8c-1.1,0-2.1,0.8-2.1,1.8c0,1,0.9,1.8,2,1.8C45.7,124.6,46.6,123.8,46.6,122.8
		L46.6,122.8z"/>
	<path class="st12" d="M37.7,125.6l-1.2,2.7c-0.4,1-0.8,2-1.1,2.9l0-5.6H32l-2.8,5.7l0.3-5.8l-3.7,0.5l0.7,9.3h3.3
		c0,0,2.5-5,2.7-5.6l0,5.6h3.3l5.5-9.6H37.7z"/>
	<path class="st12" d="M21.8,125.3c-1,0-1.7,0.3-2.1,0.5c0.6-1.9,0.7-3.6,0.7-3.6l0,0c0-0.3,0-0.6,0-0.8l-3.9,0.5
		c0,0.6,0,1.6-0.5,3.7l-1.9,7.8c-0.1,0.4-0.3,1.1-0.5,1.3c1.2,0.4,2.5,0.7,4.7,0.7c1.2,0,2.2-0.2,3.2-0.8c1.7-1,2.7-2.8,3.2-4.5
		C25.6,126.9,24.2,125.3,21.8,125.3z M20.9,130.3c-0.4,1.8-1,2.6-1.9,2.6c-0.4,0-0.7-0.1-0.9-0.2l1-4.3c0.2-0.2,0.5-0.5,1.1-0.5
		C21,127.9,21.3,128.4,20.9,130.3z"/>
</g>
<g>
	<path class="st13" d="M17.5,153.8v13.1c10,2.2,17.5,4.6,26.7,8.4c0.7-7.8,3.6-15.5,7.8-21.5L17.5,153.8z"/>
	<path d="M24.5,160.9h-1.2l0.5-2.3c0-0.1,0.1-0.2,0.1-0.4c0-0.4-0.3-0.4-0.4-0.4c-0.2,0-0.4,0.1-0.5,0.2c-0.2,0.2-0.3,0.5-0.4,0.8
		l-0.5,2.1H21l0.9-3.9H23l-0.1,0.5c0.2-0.2,0.5-0.6,1.1-0.6c0.6,0,1.1,0.4,1.1,1c0,0.1,0,0.3-0.1,0.4L24.5,160.9z M27.8,155.9
		l-0.2,1.1h0.7l-0.2,0.7h-0.7l-0.4,1.6c0,0.1-0.1,0.2-0.1,0.3c0,0.3,0.2,0.3,0.4,0.4h0.2l-0.2,0.9c-0.2,0-0.4,0.1-0.7,0.1
		c-0.2,0-0.4,0-0.5-0.1c-0.3-0.1-0.5-0.3-0.5-0.8c0-0.1,0-0.3,0.1-0.4l0.4-2h-0.5l0.2-0.7h0.5l0.2-1.1L27.8,155.9L27.8,155.9z
		 M32,159.8c-0.2,0.4-0.7,1.1-1.9,1.1c-1.4,0-1.9-1-1.9-1.9c0-0.9,0.7-2.2,2.2-2.2c0.9,0,1.8,0.5,1.8,1.8c0,0.2,0,0.3,0,0.5h-2.8
		c0,0.3,0,0.5,0.1,0.6c0.1,0.2,0.4,0.3,0.6,0.3c0.6,0,0.8-0.4,1-0.6L32,159.8z M31.1,158.4c0-0.1,0-0.5-0.3-0.6
		c-0.1-0.1-0.2-0.1-0.4-0.1c-0.6,0-0.8,0.5-0.9,0.7H31.1z M34.4,157.6c0.1-0.1,0.1-0.2,0.2-0.2c0.2-0.2,0.6-0.4,1-0.4
		c0.1,0,0.1,0,0.2,0l-0.2,1c-0.3,0-0.7,0-1,0.2c-0.3,0.2-0.4,0.6-0.5,0.9l-0.4,1.8h-1.2l0.9-3.9h1.2L34.4,157.6z M27.1,162.7
		l-2.1,3.9h-1.2l0-2.4l-1.2,2.4h-1.2l-0.2-3.9h1.1l0.1,2.5l1.2-2.5h1.1l0.1,2.5l1.2-2.5H27.1z M30.7,165.6c-0.2,0.4-0.7,1.1-1.9,1.1
		c-1.4,0-1.9-1-1.9-1.9c0-0.9,0.7-2.2,2.2-2.2c0.9,0,1.8,0.5,1.8,1.8c0,0.2,0,0.3,0,0.5H28c0,0.3,0,0.5,0.1,0.6
		c0.1,0.2,0.4,0.3,0.6,0.3c0.6,0,0.8-0.4,1-0.6L30.7,165.6z M29.8,164.1c0-0.1,0-0.5-0.3-0.6c-0.1-0.1-0.2-0.1-0.4-0.1
		c-0.6,0-0.8,0.5-0.9,0.7C28.1,164.1,29.8,164.1,29.8,164.1z M33.5,161.7l-0.2,1.1h0.7l-0.2,0.7H33l-0.4,1.6c0,0.1-0.1,0.2-0.1,0.3
		c0,0.3,0.2,0.3,0.4,0.4h0.2l-0.2,0.9c-0.2,0-0.4,0.1-0.7,0.1c-0.2,0-0.4,0-0.5-0.1c-0.3-0.1-0.5-0.3-0.5-0.8c0-0.1,0-0.3,0.1-0.4
		l0.4-2h-0.5l0.2-0.7h0.5l0.2-1.1L33.5,161.7L33.5,161.7z M36.2,161.7l-0.2,1.1h0.7l-0.2,0.7h-0.7l-0.4,1.6c0,0.1-0.1,0.2-0.1,0.3
		c0,0.3,0.2,0.3,0.4,0.4H36l-0.2,0.9c-0.2,0-0.4,0.1-0.7,0.1c-0.2,0-0.4,0-0.5-0.1c-0.3-0.1-0.5-0.3-0.5-0.8c0-0.1,0-0.3,0.1-0.4
		l0.4-2h-0.5l0.2-0.7h0.5l0.2-1.1L36.2,161.7L36.2,161.7z M40.4,165.6c-0.2,0.4-0.7,1.1-1.9,1.1c-1.4,0-1.9-1-1.9-1.9
		c0-0.9,0.7-2.2,2.2-2.2c0.9,0,1.8,0.5,1.8,1.8c0,0.2,0,0.3,0,0.5h-2.8c0,0.3,0,0.5,0.1,0.6c0.1,0.2,0.4,0.3,0.6,0.3
		c0.6,0,0.8-0.4,1-0.6L40.4,165.6z M39.6,164.1c0-0.1,0-0.5-0.3-0.6c-0.1-0.1-0.2-0.1-0.4-0.1c-0.6,0-0.8,0.5-0.9,0.7
		C37.9,164.1,39.6,164.1,39.6,164.1z M44.4,166.6h-1.2l0.5-2.3c0-0.1,0.1-0.2,0.1-0.4c0-0.4-0.3-0.4-0.4-0.4c-0.2,0-0.4,0.1-0.5,0.2
		c-0.2,0.2-0.3,0.5-0.4,0.8l-0.5,2.1h-1.2l0.9-3.9H43l-0.1,0.5c0.2-0.2,0.5-0.6,1.1-0.6c0.6,0,1.1,0.4,1.1,1c0,0.1,0,0.3-0.1,0.4
		L44.4,166.6z M19.7,157l-0.9,3.9h1.2l0.9-3.9H19.7z M51.9,152.7H17.5h-1.2v1.2v13.1v0.9l0.9,0.2c9.4,2,16.8,4.4,26.4,8.3l1.5,0.6
		l0.1-1.6c0.7-7.5,3.4-15,7.6-21l1.3-1.8H51.9z M44.2,175.4c-9.2-3.8-16.7-6.2-26.7-8.4v-13.2h2.9l-0.6,2.5H21l0.6-2.5h30.4
		C47.7,159.8,44.9,167.5,44.2,175.4z"/>
</g>
<g>
	<path class="st10" d="M29.1,196.6l-1.3,1.3v0.8v0.8h0.5h0.5v1.8c0,1,0,2,0.1,2.3c0.1,0.6,0.6,1.1,1.1,1.2c0.5,0.1,2.7,0.1,3.5,0
		l0.7-0.1l0-1c0-1,0-1-0.1-1c-0.2,0-0.8,0.1-1.3,0.1c-0.2,0-0.4-0.1-0.5-0.2c-0.2-0.2-0.2-0.3-0.2-1.6v-1.4h1.1h1.1v-1.3v-1.3h-1.1
		h-1.1V196v-0.8l-0.9,0l-0.9,0L29.1,196.6z"/>
	<path class="st14" d="M55.4,196.6l-1.3,1.3v0.8v0.8h0.5h0.5v1.9c0,1.1,0,2.1,0.1,2.3c0.1,0.5,0.6,1,1.1,1.1c0.7,0.2,3.7,0.1,4-0.2
		c0.1,0,0.1-0.5,0.2-1l0.1-1l-0.7,0.1c-0.9,0.1-1.3,0-1.4-0.4c-0.1-0.2-0.1-0.9-0.1-1.5v-1.2h1.2h1.2v-1.3v-1.3h-1.2h-1.2V196v-0.8
		l-0.9,0l-0.9,0L55.4,196.6z"/>
	<path class="st10" d="M9.8,200v4.6h1.6h1.6v-1.8c0-1,0-2.3-0.1-2.9c-0.1-0.6-0.1-1.2-0.1-1.2s0.2,0.3,0.3,0.8
		c0.2,0.5,0.7,1.8,1.2,2.9l0.9,2.1H17h1.8V200v-4.6h-1.5h-1.5l0,1.9c0,1.1,0,2.2,0.1,2.4c0,0.3,0,0.5,0,0.5c0,0-0.2-0.4-0.4-0.9
		c-0.2-0.5-0.6-1.6-1-2.4l-0.7-1.6h-2h-2L9.8,200L9.8,200z"/>
	<path class="st14" d="M36.1,200l0,4.6h3.6c3.3,0,3.6,0,4.2-0.2c0.7-0.2,1.1-0.6,1.3-1.2c0.2-0.5,0.1-1.7,0-2.1
		c-0.3-0.6-1.1-1.1-1.8-1.1c-0.3,0-0.3,0,0.1-0.1c1.3-0.4,1.7-1,1.7-2.4c0-1.1-0.3-1.6-1.1-2c-0.4-0.2-0.6-0.2-4.2-0.2l-3.8,0
		L36.1,200z M41.9,197.9c0.1,0.1,0.2,0.3,0.2,0.5c0,0.3-0.1,0.4-0.2,0.6c-0.2,0.2-0.4,0.2-1.2,0.2h-1v-0.7v-0.7h1.1
		C41.5,197.7,41.8,197.8,41.9,197.9z M41.7,201c0.6,0.2,0.7,0.8,0.3,1.2c-0.2,0.2-0.3,0.2-1.3,0.2h-1.1v-0.8v-0.8h0.9
		C40.9,200.9,41.5,200.9,41.7,201z"/>
	<path class="st10" d="M22.4,196.6c-0.8,0.1-1.5,0.4-2,0.8c-0.8,0.6-1.2,2.1-1.1,3.7c0.1,2,0.9,3.2,2.5,3.6c0.6,0.2,2.7,0.2,3.5,0.1
		c0.9-0.2,1.8-0.4,1.9-0.5c0-0.1,0.3-1.9,0.3-1.9c0,0-0.3,0.1-0.7,0.2c-1.5,0.4-2.9,0.5-3.6,0.1c-0.3-0.1-0.7-0.6-0.7-0.8
		c0,0,1.2-0.1,2.6-0.1h2.6l0.1-0.7c0.2-1.4-0.3-3-0.9-3.6C26,196.6,24.3,196.3,22.4,196.6z M24.6,198.8c0.3,0.1,0.5,0.5,0.5,0.8
		l0.1,0.3h-1.4h-1.4v-0.3c0-0.4,0.4-0.9,0.9-1C23.7,198.6,24.4,198.7,24.6,198.8z"/>
	<path class="st14" d="M48.7,196.6c-1.4,0.2-2.4,0.9-2.8,2c-0.3,0.7-0.4,2.6-0.2,3.4c0.2,0.8,0.6,1.6,1.1,2c0.8,0.7,2.3,1,4,0.8
		c0.9-0.1,2.5-0.4,2.6-0.6c0.1-0.1,0.3-1.5,0.3-1.9c0-0.1-0.2-0.1-0.7,0.1c-1.1,0.3-2.5,0.4-3.2,0.3c-0.6-0.1-1.1-0.5-1.1-0.9
		c0-0.2,0.1-0.2,2.6-0.2l2.6,0v-1.3c0-1.6-0.2-2.1-0.9-2.8C52.3,196.6,50.7,196.3,48.7,196.6z M50.9,198.8c0.1,0.1,0.3,0.3,0.4,0.5
		c0.3,0.6,0.3,0.6-1.3,0.6c-1.2,0-1.4,0-1.4-0.1c0-0.2,0.2-0.8,0.4-0.9C49.4,198.6,50.5,198.6,50.9,198.8z"/>
</g>
<g>
	<path class="st12" d="M52.5,277.9l-0.5,1.9c-0.2,0.6-0.6,1-1.2,1.2c-0.2,0.1-0.3,0.1-0.5,0.1h-5.1c-0.1,0-0.2,0-0.3,0
		c-0.9-0.2-1.4-1.1-1.2-2.1c0,0,0.2-0.7,0.3-1c0-0.2-0.1-0.2-0.1-0.2h-8.2l-3.5,1.9c-0.2,0.1-0.4,0.2-0.6,0.2
		c-0.4,0-0.8-0.2-1.1-0.5c-0.3-0.4-0.5-0.9-0.3-1.4c0,0,0.1-0.1-0.1-0.1H16.5c-1.6,0-2.9-1.3-2.9-3v-6.7c0-1.6,1.3-3,2.9-3h0.9
		l0.5-2c0.2-0.6,0.6-1.1,1.3-1.3c0.1,0,0.3-0.1,0.4-0.1h9.8c0.1,0,0.3,0,0.4,0c0.9,0.3,1.5,1.2,1.3,2.2l-0.3,1.1h4.6l3.4-1.7
		c0.2-0.1,0.4-0.2,0.7-0.2c0.4,0,0.8,0.2,1.1,0.5c0.3,0.4,0.4,0.9,0.3,1.4h12.8c1.6,0,2.9,1.3,2.9,3v6.7c0,1.6-1.4,3-3,3h-0.7
		C52.7,277.7,52.5,277.7,52.5,277.9z"/>
	<g>
	</g>
	<g>
	</g>
	<g>
	</g>
	<path class="st15" d="M31.7,278.1l3.7-5.5h0.1l1.4,1.9h1.4l-2.1-3.1l3.4-4.9l0.6,2.9v5.6c0,0-1.1,0.8-1.2,0.8
		c-0.1,0-4.5-0.2-4.5-0.2l-1.4,1.5L31.7,278.1z"/>
	
		<linearGradient id="SVGID_1_" gradientUnits="userSpaceOnUse" x1="27.5331" y1="130.9891" x2="25.2675" y2="119.1049" gradientTransform="matrix(1 0 0 -1 0 395)">
		<stop  offset="1.397650e-03" style="stop-color:#898E91"/>
		<stop  offset="1" style="stop-color:#19171C"/>
	</linearGradient>
	<path class="st16" d="M39.3,264.7l0.1-0.1l-3.8,1.9h-6.7H16.6h-0.2c0,0-1.5,0.1-1.5,1.7c0,1.6,0,6.7,0,6.7s-0.1,1.5,1.5,1.6h3.2
		h11.6l0.2-0.3l0.4-1.5l1-4.6l-0.8-1.9l0.4-0.8l3.6-0.3l2.8-1.9L39.3,264.7z"/>
	<path class="st17" d="M39.3,264.7l-3.8,5.6h-0.1l-1.3-1.9h-1.5l2.1,3l-2.3,3.4l-1.1,1.6l1.4-2.6l-0.4-4.8l-0.2-1c0,0,1.9-0.2,2-0.3
		c0.1,0,2.2,0,2.2,0L39.3,264.7z"/>
	
		<linearGradient id="SVGID_2_" gradientUnits="userSpaceOnUse" x1="43.3218" y1="128.3266" x2="43.3218" y2="118.7417" gradientTransform="matrix(1 0 0 -1 0 395)">
		<stop  offset="0" style="stop-color:#F16169"/>
		<stop  offset="8.792251e-02" style="stop-color:#F05357"/>
		<stop  offset="0.1788" style="stop-color:#EF4749"/>
		<stop  offset="0.2733" style="stop-color:#EE3E3E"/>
		<stop  offset="0.3729" style="stop-color:#ED3938"/>
		<stop  offset="0.4859" style="stop-color:#ED3736"/>
		<stop  offset="0.562" style="stop-color:#E03434"/>
		<stop  offset="0.6753" style="stop-color:#C92D30"/>
		<stop  offset="0.812" style="stop-color:#A52328"/>
		<stop  offset="0.9657" style="stop-color:#79141A"/>
		<stop  offset="0.9992" style="stop-color:#6F1017"/>
	</linearGradient>
	<path class="st18" d="M31.6,278.3l3.7-1.9h18.3c0,0,1.4,0,1.5-1.6v-6.7c0,0,0.1-1.6-1.5-1.7H39.7l-0.1,0.2l-0.4,1.9l-0.9,3.1l0.6,3
		v0.9l-2.8,0.4l-1.5,0L31.6,278.3"/>
	
		<linearGradient id="SVGID_3_" gradientUnits="userSpaceOnUse" x1="35.454" y1="127.5295" x2="51.6735" y2="116.5557" gradientTransform="matrix(1 0 0 -1 0 395)">
		<stop  offset="0" style="stop-color:#ED3736"/>
		<stop  offset="0.6447" style="stop-color:#D62A32"/>
		<stop  offset="0.7742" style="stop-color:#CF2A32"/>
		<stop  offset="0.9208" style="stop-color:#BE2931"/>
		<stop  offset="1" style="stop-color:#B12830"/>
	</linearGradient>
	<path class="st19" d="M35.3,276.3h18.3c0.8,0,1.5-0.7,1.5-1.5v-6.7c0-0.8-0.7-1.5-1.5-1.5H39.6l-3.4,4.9l2.2,3.2h-1.6l-1.4-2
		l-3.9,5.8L35.3,276.3z"/>
	
		<linearGradient id="SVGID_4_" gradientUnits="userSpaceOnUse" x1="15.3458" y1="121.8789" x2="39.8328" y2="126.7763" gradientTransform="matrix(1 0 0 -1 0 395)">
		<stop  offset="0" style="stop-color:#19171C"/>
		<stop  offset="0.1403" style="stop-color:#26272B"/>
		<stop  offset="0.3005" style="stop-color:#313236"/>
		<stop  offset="0.4481" style="stop-color:#37393D"/>
		<stop  offset="0.5701" style="stop-color:#393C3F"/>
		<stop  offset="0.9925" style="stop-color:#47494D"/>
	</linearGradient>
	<path class="st20" d="M34.6,271.4l-2.2-3.2H34l1.4,2l3.8-5.6l-3.7,1.9H16.4c-0.8,0-1.5,0.7-1.5,1.5v6.7c0,0.8,0.7,1.5,1.5,1.5h14.8
		L34.6,271.4z"/>
	<g>
		<g>
		</g>
		<g>
		</g>
		
			<linearGradient id="SVGID_5_" gradientUnits="userSpaceOnUse" x1="24.0757" y1="131.9578" x2="24.0757" y2="127.5936" gradientTransform="matrix(1 0 0 -1 0 395)">
			<stop  offset="0" style="stop-color:#F69AA1"/>
			<stop  offset="8.079831e-03" style="stop-color:#F48B8B"/>
			<stop  offset="2.169751e-02" style="stop-color:#F2756F"/>
			<stop  offset="3.577329e-02" style="stop-color:#F0615A"/>
			<stop  offset="5.019660e-02" style="stop-color:#EF504A"/>
			<stop  offset="6.510857e-02" style="stop-color:#EE423E"/>
			<stop  offset="8.081198e-02" style="stop-color:#ED3A38"/>
			<stop  offset="9.862389e-02" style="stop-color:#ED3736"/>
			<stop  offset="0.1534" style="stop-color:#ED3736"/>
			<stop  offset="0.4859" style="stop-color:#ED3736"/>
			<stop  offset="0.647" style="stop-color:#E43335"/>
			<stop  offset="0.8865" style="stop-color:#D12932"/>
			<stop  offset="0.9291" style="stop-color:#CE2731"/>
			<stop  offset="1" style="stop-color:#77111D"/>
		</linearGradient>
		<path class="st21" d="M29.3,263h-0.1h-9.3h-0.2c-0.2,0-0.3,0.1-0.3,0.3l-0.9,3.6c0,0-0.1,0.5,0.3,0.5h9.7h0.1
			c0.1,0,0.2-0.2,0.3-0.3l0.9-3.6C29.8,263.2,29.6,263,29.3,263"/>
		
			<linearGradient id="SVGID_6_" gradientUnits="userSpaceOnUse" x1="18.5819" y1="129.803" x2="29.5697" y2="129.803" gradientTransform="matrix(1 0 0 -1 0 395)">
			<stop  offset="0" style="stop-color:#ED3736"/>
			<stop  offset="1" style="stop-color:#ED3736"/>
		</linearGradient>
		<path class="st22" d="M29.1,263.1L29.1,263.1h-9.2h-0.1c-0.2,0-0.3,0.1-0.3,0.3l-0.8,3.4c0,0-0.2,0.4,0.3,0.5h9.4h0.1
			c0.1,0,0.2-0.1,0.2-0.3l0.8-3.4c0.1-0.2-0.1-0.5-0.3-0.5H29.1z"/>
	</g>
	<g>
	</g>
	<g>
	</g>
	
		<linearGradient id="SVGID_7_" gradientUnits="userSpaceOnUse" x1="48.4445" y1="115.2862" x2="47.998" y2="119.5434" gradientTransform="matrix(1 0 0 -1 0 395)">
		<stop  offset="0" style="stop-color:#19171C"/>
		<stop  offset="0.3839" style="stop-color:#1A191E"/>
		<stop  offset="0.473" style="stop-color:#212226"/>
		<stop  offset="0.6425" style="stop-color:#303538"/>
		<stop  offset="0.7063" style="stop-color:#363D40"/>
		<stop  offset="0.8364" style="stop-color:#5A5E60"/>
		<stop  offset="1" style="stop-color:#939696"/>
	</linearGradient>
	<path class="st23" d="M51.2,275.5L51.2,275.5H51h-0.1h-3h-0.3h-0.8h-0.3h-0.1h-0.1h-0.1h0c-0.2,0-0.3,0.1-0.3,0.3l-0.9,3.5
		c-0.1,0.2,0.1,0.5,0.3,0.5h0.1h0.1h0.1h1.1h0.3h0.8h0.3H50h0.1h0.1h0.1c0.1,0,0.3-0.1,0.3-0.3l0.8-3.5
		C51.6,275.7,51.5,275.5,51.2,275.5"/>
	
		<linearGradient id="SVGID_8_" gradientUnits="userSpaceOnUse" x1="48.3269" y1="119.3737" x2="48.0922" y2="114.7198" gradientTransform="matrix(1 0 0 -1 0 395)">
		<stop  offset="0" style="stop-color:#19171C"/>
		<stop  offset="0.2642" style="stop-color:#28282C"/>
		<stop  offset="0.5286" style="stop-color:#313337"/>
		<stop  offset="0.7788" style="stop-color:#37393D"/>
		<stop  offset="0.9978" style="stop-color:#393C3F"/>
	</linearGradient>
	<path class="st24" d="M51.1,275.6L51.1,275.6h-0.2h-0.1h-2.9h-0.3h-0.8h-0.3h-0.1h-0.1h-0.1h-0.1c-0.2,0-0.3,0.1-0.3,0.3l-0.8,3.3
		c-0.1,0.2,0.1,0.4,0.3,0.4h0.1h0.1h0.1h1h0.3h0.8h0.3H50h0.1h0.1h0.1c0.1,0,0.2-0.1,0.3-0.3l0.8-3.3
		C51.5,275.9,51.4,275.6,51.1,275.6"/>
	<g>
	</g>
	<g>
	</g>
	<g>
	</g>
	<g>
		<g>
			<g>
				
					<linearGradient id="SVGID_9_" gradientUnits="userSpaceOnUse" x1="19.4532" y1="120.5002" x2="19.4532" y2="126.7801" gradientTransform="matrix(1 0 0 -1 0 395)">
					<stop  offset="0" style="stop-color:#656A6D"/>
					<stop  offset="5.845438e-02" style="stop-color:#787C80"/>
					<stop  offset="0.1176" style="stop-color:#84898D"/>
					<stop  offset="0.1721" style="stop-color:#898E91"/>
					<stop  offset="0.2016" style="stop-color:#8F9397"/>
					<stop  offset="0.3023" style="stop-color:#A0A4A7"/>
					<stop  offset="0.4026" style="stop-color:#ACAFB2"/>
					<stop  offset="0.5017" style="stop-color:#B0B3B6"/>
					<stop  offset="0.6253" style="stop-color:#ADB1B3"/>
					<stop  offset="0.7082" style="stop-color:#A5A8AB"/>
					<stop  offset="0.779" style="stop-color:#979B9E"/>
					<stop  offset="0.8322" style="stop-color:#898E91"/>
					<stop  offset="0.915" style="stop-color:#82888C"/>
					<stop  offset="1" style="stop-color:#767C80"/>
				</linearGradient>
				<path class="st25" d="M20.7,268.2h-0.8c-0.8,0-1.4,0.5-1.6,1.4l-0.1,0.5c-0.1,0.3-0.1,0.7,0.2,1l1.3,1.4
					c0.1,0.2,0.2,0.2,0.1,0.5l0,0c-0.1,0.2-0.2,0.3-0.4,0.3H19c-0.2,0-0.3-0.1-0.3-0.3l0.1-0.3c0,0-0.1,0-0.1,0h-1.6l-0.2,0l0.1,0.2
					l0.2,0l-0.1,0.4c-0.2,0.8,0.1,1.4,0.9,1.4h1c0.8,0,1.5-0.5,1.8-1.4l0.1-0.4c0.1-0.3,0.1-0.7-0.2-1l-1.3-1.4
					c-0.1-0.2-0.2-0.2-0.1-0.5l0-0.1c0.1-0.2,0.2-0.3,0.5-0.3h0.2c0.2,0,0.3,0.1,0.3,0.3l-0.1,0.4l-0.5,0.1l0.2,0h1.5c0,0,0,0,0,0
					l0.2-0.7C22.1,268.7,21.5,268.2,20.7,268.2z"/>
				
					<linearGradient id="SVGID_10_" gradientUnits="userSpaceOnUse" x1="19.1346" y1="126.7208" x2="19.1346" y2="120.4478" gradientTransform="matrix(1 0 0 -1 0 395)">
					<stop  offset="0" style="stop-color:#CFD2D3"/>
					<stop  offset="0.1938" style="stop-color:#EFEFEF"/>
					<stop  offset="0.3003" style="stop-color:#FFFFFF"/>
					<stop  offset="0.317" style="stop-color:#FFFFFF"/>
					<stop  offset="0.4736" style="stop-color:#FFFFFF"/>
					<stop  offset="0.6191" style="stop-color:#F7F7F6"/>
					<stop  offset="0.8031" style="stop-color:#E7E7E8"/>
					<stop  offset="1" style="stop-color:#CFD2D3"/>
				</linearGradient>
				<path class="st26" d="M20.7,272.8l-0.1,0.4c-0.2,0.8-0.8,1.4-1.6,1.4h-1.2c-0.8,0-1.2-0.5-0.9-1.4l0.1-0.6h1.4l-0.1,0.3
					c-0.1,0.2,0,0.4,0.3,0.4h0.3c0.2,0,0.4-0.1,0.4-0.4l0-0.1c0.1-0.2,0-0.3-0.1-0.5l-1.3-1.4c-0.3-0.3-0.2-0.7-0.2-1l0.1-0.5
					c0.2-0.8,0.8-1.4,1.6-1.4h1.1c0.8,0,1.2,0.5,0.9,1.4l-0.2,0.7h-1.4l0.1-0.5c0.1-0.2,0-0.4-0.3-0.4h-0.2c-0.2,0-0.4,0.1-0.5,0.4
					l0,0.1c-0.1,0.2,0,0.3,0.1,0.5l1.3,1.4C20.8,272.1,20.7,272.5,20.7,272.8"/>
				
					<linearGradient id="SVGID_11_" gradientUnits="userSpaceOnUse" x1="19.9443" y1="126.774" x2="19.9443" y2="126.6739" gradientTransform="matrix(1 0 0 -1 0 395)">
					<stop  offset="0" style="stop-color:#EBECEB"/>
					<stop  offset="1" style="stop-color:#EBECEB;stop-opacity:0"/>
				</linearGradient>
				<path class="st27" d="M20.5,268.2h-1.1c-0.2,0-0.4,0-0.6,0.1H21C20.9,268.3,20.7,268.2,20.5,268.2z"/>
			</g>
			
				<linearGradient id="SVGID_12_" gradientUnits="userSpaceOnUse" x1="19.4893" y1="125.6021" x2="19.4893" y2="124.8161" gradientTransform="matrix(1 0 0 -1 0 395)">
				<stop  offset="0" style="stop-color:#656A6D"/>
				<stop  offset="1" style="stop-color:#656A6D;stop-opacity:0"/>
			</linearGradient>
			<path class="st28" d="M19.7,270.3c-0.1-0.1-0.2-0.2-0.1-0.4l0-0.1c0.1-0.2,0.2-0.3,0.4-0.3c0,0-0.1-0.1-0.2-0.1h-0.2
				c-0.2,0-0.4,0.1-0.5,0.4l0,0.1c-0.1,0.2,0,0.3,0.1,0.4C19.3,270.3,19.5,270.3,19.7,270.3z"/>
			
				<linearGradient id="SVGID_13_" gradientUnits="userSpaceOnUse" x1="20.8499" y1="123.1868" x2="20.8499" y2="122.1319" gradientTransform="matrix(1 0 0 -1 0 395)">
				<stop  offset="0" style="stop-color:#B0B3B6;stop-opacity:7.916400e-02"/>
				<stop  offset="0.1988" style="stop-color:#B5B9BB;stop-opacity:0.4354"/>
				<stop  offset="0.4645" style="stop-color:#C4C8C8;stop-opacity:0.9117"/>
				<stop  offset="0.5138" style="stop-color:#C7CBCC"/>
				<stop  offset="0.5396" style="stop-color:#C5C9CA;stop-opacity:0.9468"/>
				<stop  offset="0.8083" style="stop-color:#B6B9BB;stop-opacity:0.3943"/>
				<stop  offset="1" style="stop-color:#B0B3B6;stop-opacity:0"/>
			</linearGradient>
			<path class="st29" d="M20.6,271.9c0.2,0.3,0.2,0.7,0.1,1l0,0.1c0.2,0,0.3-0.1,0.4-0.1v0c0.1-0.3,0.1-0.7-0.2-1
				C20.8,271.8,20.7,271.8,20.6,271.9z"/>
			
				<linearGradient id="SVGID_14_" gradientUnits="userSpaceOnUse" x1="21.5624" y1="126.6076" x2="21.5624" y2="125.5232" gradientTransform="matrix(1 0 0 -1 0 395)">
				<stop  offset="0" style="stop-color:#B0B3B6;stop-opacity:7.916400e-02"/>
				<stop  offset="0.5138" style="stop-color:#B0B3B6"/>
				<stop  offset="1" style="stop-color:#B0B3B6;stop-opacity:0"/>
			</linearGradient>
			<path class="st30" d="M21.5,268.4C21.5,268.4,21.4,268.4,21.5,268.4c-0.1,0-0.2,0-0.3,0c0.3,0.2,0.3,0.6,0.2,1.1
				c0.2,0,0.3-0.1,0.4-0.1C22,269,21.8,268.6,21.5,268.4z"/>
			
				<linearGradient id="SVGID_15_" gradientUnits="userSpaceOnUse" x1="18.6638" y1="122.1319" x2="18.6638" y2="121.6178" gradientTransform="matrix(1 0 0 -1 0 395)">
				<stop  offset="0" style="stop-color:#B0B3B6;stop-opacity:7.916400e-02"/>
				<stop  offset="0.6644" style="stop-color:#B0B3B6"/>
				<stop  offset="1" style="stop-color:#B0B3B6;stop-opacity:0"/>
			</linearGradient>
			<path class="st31" d="M18.8,272.9l-0.1,0.2c0,0-0.1,0.3,0.2,0.3c0.1,0,0.1,0,0.1,0s-0.1,0.1-0.2,0.1s-0.3,0-0.3,0s-0.4,0-0.3-0.3
				l0.1-0.2L18.8,272.9z"/>
		</g>
		
			<linearGradient id="SVGID_16_" gradientUnits="userSpaceOnUse" x1="18.3827" y1="120.387" x2="18.3827" y2="120.4807" gradientTransform="matrix(1 0 0 -1 0 395)">
			<stop  offset="0" style="stop-color:#656A6D"/>
			<stop  offset="1" style="stop-color:#656A6D;stop-opacity:0"/>
		</linearGradient>
		<path class="st32" d="M18.9,274.6c0.2,0,0.4,0,0.6-0.1h-2.3c0.1,0.1,0.3,0.1,0.5,0.1H18.9z"/>
	</g>
	<g>
		
			<linearGradient id="SVGID_17_" gradientUnits="userSpaceOnUse" x1="23.5768" y1="120.5002" x2="23.5768" y2="126.7801" gradientTransform="matrix(1 0 0 -1 0 395)">
			<stop  offset="0" style="stop-color:#656A6D"/>
			<stop  offset="5.845438e-02" style="stop-color:#787C80"/>
			<stop  offset="0.1176" style="stop-color:#84898D"/>
			<stop  offset="0.1721" style="stop-color:#898E91"/>
			<stop  offset="0.2016" style="stop-color:#8F9397"/>
			<stop  offset="0.3023" style="stop-color:#A0A4A7"/>
			<stop  offset="0.4026" style="stop-color:#ACAFB2"/>
			<stop  offset="0.5017" style="stop-color:#B0B3B6"/>
			<stop  offset="0.6253" style="stop-color:#ADB1B3"/>
			<stop  offset="0.7082" style="stop-color:#A5A8AB"/>
			<stop  offset="0.779" style="stop-color:#979B9E"/>
			<stop  offset="0.8322" style="stop-color:#898E91"/>
			<stop  offset="0.915" style="stop-color:#82888C"/>
			<stop  offset="1" style="stop-color:#767C80"/>
		</linearGradient>
		<path class="st33" d="M25.2,269.1h-1.1l0.2-0.8l-0.3-0.1h-0.7l0,0h-0.1c-0.1,0-0.2,0-0.2,0.1c-0.1,0.1-0.1,0.2-0.2,0.3l0,0.2
			l-0.7,2.8l0,0l-0.4,1.7c-0.2,0.8,0.1,1.3,0.9,1.3h1l0,0h0.1l0.3-0.1l0.3-1.2H24h-0.4l0,0h-0.3c-0.3,0-0.3-0.1-0.2-0.4l0.3-1.4
			l0.3-1.2h1.3c0,0,0.1,0,0.1-0.1l0.3-1.2L25.2,269.1z"/>
		
			<linearGradient id="SVGID_18_" gradientUnits="userSpaceOnUse" x1="23.2395" y1="126.7208" x2="23.2395" y2="120.4478" gradientTransform="matrix(1 0 0 -1 0 395)">
			<stop  offset="0" style="stop-color:#CFD2D3"/>
			<stop  offset="0.1938" style="stop-color:#EFEFEF"/>
			<stop  offset="0.3003" style="stop-color:#FFFFFF"/>
			<stop  offset="0.317" style="stop-color:#FFFFFF"/>
			<stop  offset="0.4736" style="stop-color:#FFFFFF"/>
			<stop  offset="0.6191" style="stop-color:#F7F7F6"/>
			<stop  offset="0.8031" style="stop-color:#E7E7E8"/>
			<stop  offset="1" style="stop-color:#CFD2D3"/>
		</linearGradient>
		<path class="st34" d="M23.8,274.6h-0.5l0,0h-1c-0.8,0-1.2-0.5-0.9-1.3l0.4-1.7l0,0l0.7-2.8l0-0.2c0-0.1,0.1-0.2,0.2-0.3
			c0.1-0.1,0.2-0.1,0.2-0.1H23l0,0h1l-0.2,0.9h1.4l-0.3,1.2h-1.4l-0.3,1.2l-0.4,1.5c-0.1,0.3,0.1,0.4,0.3,0.4h0.3l0,0h0.3h0.4
			L23.8,274.6z"/>
		
			<linearGradient id="SVGID_19_" gradientUnits="userSpaceOnUse" x1="23.4338" y1="126.7753" x2="23.4338" y2="126.7753" gradientTransform="matrix(1 0 0 -1 0 395)">
			<stop  offset="0" style="stop-color:#EBECEB"/>
			<stop  offset="1" style="stop-color:#EBECEB;stop-opacity:0"/>
		</linearGradient>
		<path class="st35" d="M24,268.2h-1l0,0h-0.1l0,0H24L24,268.2z"/>
		
			<linearGradient id="SVGID_20_" gradientUnits="userSpaceOnUse" x1="23.3182" y1="126.774" x2="23.3182" y2="126.6739" gradientTransform="matrix(1 0 0 -1 0 395)">
			<stop  offset="0" style="stop-color:#EBECEB"/>
			<stop  offset="1" style="stop-color:#EBECEB;stop-opacity:0"/>
		</linearGradient>
		<path class="st36" d="M24,268.3L24,268.3l-1.1-0.1c-0.1,0-0.2,0-0.2,0.1H24z"/>
		
			<linearGradient id="SVGID_21_" gradientUnits="userSpaceOnUse" x1="23.1049" y1="122.1319" x2="23.1049" y2="121.6094" gradientTransform="matrix(1 0 0 -1 0 395)">
			<stop  offset="0" style="stop-color:#B0B3B6;stop-opacity:7.916400e-02"/>
			<stop  offset="0.6644" style="stop-color:#B0B3B6"/>
			<stop  offset="1" style="stop-color:#B0B3B6;stop-opacity:0"/>
		</linearGradient>
		<path class="st37" d="M23.4,273.4C23.4,273.4,23.3,273.4,23.4,273.4L23.4,273.4L23.4,273.4c-0.3-0.1-0.3-0.2-0.2-0.4l0-0.1
			c-0.1,0-0.3,0.1-0.4,0.1v0c-0.1,0.3,0.1,0.4,0.3,0.4H23.4z"/>
		
			<linearGradient id="SVGID_22_" gradientUnits="userSpaceOnUse" x1="22.788" y1="120.387" x2="22.788" y2="120.4807" gradientTransform="matrix(1 0 0 -1 0 395)">
			<stop  offset="0" style="stop-color:#656A6D"/>
			<stop  offset="1" style="stop-color:#656A6D;stop-opacity:0"/>
		</linearGradient>
		<path class="st38" d="M22.3,274.6h1l0,0h0.5l0-0.1h-2C21.9,274.6,22.1,274.6,22.3,274.6z"/>
	</g>
	<g>
		
			<linearGradient id="SVGID_23_" gradientUnits="userSpaceOnUse" x1="27.4661" y1="120.5002" x2="27.4661" y2="126.7802" gradientTransform="matrix(1 0 0 -1 0 395)">
			<stop  offset="0" style="stop-color:#656A6D"/>
			<stop  offset="5.845438e-02" style="stop-color:#787C80"/>
			<stop  offset="0.1176" style="stop-color:#84898D"/>
			<stop  offset="0.1721" style="stop-color:#898E91"/>
			<stop  offset="0.2016" style="stop-color:#8F9397"/>
			<stop  offset="0.3023" style="stop-color:#A0A4A7"/>
			<stop  offset="0.4026" style="stop-color:#ACAFB2"/>
			<stop  offset="0.5017" style="stop-color:#B0B3B6"/>
			<stop  offset="0.6253" style="stop-color:#ADB1B3"/>
			<stop  offset="0.7082" style="stop-color:#A5A8AB"/>
			<stop  offset="0.779" style="stop-color:#979B9E"/>
			<stop  offset="0.8322" style="stop-color:#898E91"/>
			<stop  offset="0.915" style="stop-color:#82888C"/>
			<stop  offset="1" style="stop-color:#767C80"/>
		</linearGradient>
		<path class="st39" d="M28.2,269.5c0.3,0,0.3,0.1,0.3,0.3l-0.8,3.1c-0.1,0.3-0.3,0.3-0.5,0.3h-0.2c-0.3,0-0.4-0.1-0.3-0.3l0.8-3.1
			c0.1-0.3,0.3-0.3,0.5-0.3H28.2 M29.8,269.6c0.2-0.9-0.3-1.4-1.1-1.4h-1.1c-0.8,0-1.4,0.5-1.6,1.4l-0.9,3.7c-0.2,0.8,0.1,1.3,1,1.3
			h1.1c0.8,0,1.5-0.5,1.7-1.3L29.8,269.6"/>
		
			<linearGradient id="SVGID_24_" gradientUnits="userSpaceOnUse" x1="27.2608" y1="126.7208" x2="27.2608" y2="120.4478" gradientTransform="matrix(1 0 0 -1 0 395)">
			<stop  offset="0" style="stop-color:#CFD2D3"/>
			<stop  offset="0.1938" style="stop-color:#EFEFEF"/>
			<stop  offset="0.3003" style="stop-color:#FFFFFF"/>
			<stop  offset="0.317" style="stop-color:#FFFFFF"/>
			<stop  offset="0.4736" style="stop-color:#FFFFFF"/>
			<stop  offset="0.6191" style="stop-color:#F7F7F6"/>
			<stop  offset="0.8031" style="stop-color:#E7E7E8"/>
			<stop  offset="1" style="stop-color:#CFD2D3"/>
		</linearGradient>
		<path class="st40" d="M27.9,269.4c0.3,0,0.3,0.2,0.3,0.4l-0.8,3.1c-0.1,0.3-0.3,0.4-0.5,0.4h-0.2c-0.3,0-0.4-0.2-0.3-0.4l0.8-3.1
			c0.1-0.3,0.3-0.4,0.5-0.4H27.9 M29.6,269.6c0.2-0.9-0.1-1.4-0.9-1.4h-1.3c-0.8,0-1.4,0.5-1.6,1.4l-0.9,3.7
			c-0.2,0.8,0.1,1.3,0.9,1.3h1.3c0.8,0,1.4-0.5,1.6-1.3L29.6,269.6"/>
		
			<linearGradient id="SVGID_25_" gradientUnits="userSpaceOnUse" x1="28.0127" y1="126.774" x2="28.0127" y2="126.6739" gradientTransform="matrix(1 0 0 -1 0 395)">
			<stop  offset="0" style="stop-color:#EBECEB"/>
			<stop  offset="1" style="stop-color:#EBECEB;stop-opacity:0"/>
		</linearGradient>
		<path class="st41" d="M28.7,268.2h-1.3c-0.2,0-0.4,0-0.6,0.1h2.3C29,268.3,28.9,268.2,28.7,268.2z"/>
		
			<linearGradient id="SVGID_26_" gradientUnits="userSpaceOnUse" x1="29.2575" y1="126.7566" x2="29.2575" y2="125.5032" gradientTransform="matrix(1 0 0 -1 0 395)">
			<stop  offset="0" style="stop-color:#B0B3B6;stop-opacity:7.916400e-02"/>
			<stop  offset="0.5138" style="stop-color:#B0B3B6"/>
			<stop  offset="1" style="stop-color:#B0B3B6;stop-opacity:0"/>
		</linearGradient>
		<path class="st42" d="M29.6,269.5L29.6,269.5C29.7,269.5,29.7,269.5,29.6,269.5c0.1,0,0.2,0,0.2,0c0.1-0.8-0.4-1.3-1.1-1.3h0
			C29.5,268.2,29.8,268.7,29.6,269.5z"/>
		
			<linearGradient id="SVGID_27_" gradientUnits="userSpaceOnUse" x1="26.739" y1="122.3882" x2="26.739" y2="121.5882" gradientTransform="matrix(1 0 0 -1 0 395)">
			<stop  offset="0" style="stop-color:#B0B3B6;stop-opacity:7.916400e-02"/>
			<stop  offset="0.6644" style="stop-color:#B0B3B6"/>
			<stop  offset="1" style="stop-color:#B0B3B6;stop-opacity:0"/>
		</linearGradient>
		<path class="st43" d="M26.9,273.3c-0.3,0-0.4-0.1-0.3-0.3l0.1-0.4l-0.3,0.1l-0.1,0.3c-0.1,0.3,0.1,0.4,0.3,0.4L26.9,273.3
			c0.1,0.1,0.2,0.1,0.2,0l0,0L26.9,273.3L26.9,273.3z"/>
		
			<linearGradient id="SVGID_28_" gradientUnits="userSpaceOnUse" x1="27.5692" y1="125.6365" x2="27.5692" y2="124.9111" gradientTransform="matrix(1 0 0 -1 0 395)">
			<stop  offset="0" style="stop-color:#656A6D"/>
			<stop  offset="1" style="stop-color:#656A6D;stop-opacity:0"/>
		</linearGradient>
		<path class="st44" d="M27.8,269.4h0.1c0,0,0.1,0,0.2,0.1L27.8,269.4L27.8,269.4c0,0.1-0.3,0.1-0.4,0.4c-0.1,0.3-0.1,0.3-0.1,0.3
			l-0.3,0l0.1-0.3c0,0,0.1-0.4,0.5-0.4H27.8z"/>
		
			<linearGradient id="SVGID_29_" gradientUnits="userSpaceOnUse" x1="28.0994" y1="125.4832" x2="28.0994" y2="125.4832" gradientTransform="matrix(1 0 0 -1 0 395)">
			<stop  offset="0" style="stop-color:#656A6D"/>
			<stop  offset="5.845438e-02" style="stop-color:#787C80"/>
			<stop  offset="0.1176" style="stop-color:#84898D"/>
			<stop  offset="0.1721" style="stop-color:#898E91"/>
			<stop  offset="0.2016" style="stop-color:#8F9397"/>
			<stop  offset="0.3023" style="stop-color:#A0A4A7"/>
			<stop  offset="0.4026" style="stop-color:#ACAFB2"/>
			<stop  offset="0.5017" style="stop-color:#B0B3B6"/>
			<stop  offset="0.6253" style="stop-color:#ADB1B3"/>
			<stop  offset="0.7082" style="stop-color:#A5A8AB"/>
			<stop  offset="0.779" style="stop-color:#979B9E"/>
			<stop  offset="0.8322" style="stop-color:#898E91"/>
			<stop  offset="0.915" style="stop-color:#82888C"/>
			<stop  offset="1" style="stop-color:#767C80"/>
		</linearGradient>
		<path class="st45" d="M28.1,269.5"/>
		
			<linearGradient id="SVGID_30_" gradientUnits="userSpaceOnUse" x1="28.0994" y1="125.4832" x2="28.0994" y2="125.4832" gradientTransform="matrix(1 0 0 -1 0 395)">
			<stop  offset="0" style="stop-color:#656A6D"/>
			<stop  offset="5.845438e-02" style="stop-color:#787C80"/>
			<stop  offset="0.1176" style="stop-color:#84898D"/>
			<stop  offset="0.1721" style="stop-color:#898E91"/>
			<stop  offset="0.2016" style="stop-color:#8F9397"/>
			<stop  offset="0.3023" style="stop-color:#A0A4A7"/>
			<stop  offset="0.4026" style="stop-color:#ACAFB2"/>
			<stop  offset="0.5017" style="stop-color:#B0B3B6"/>
			<stop  offset="0.6253" style="stop-color:#ADB1B3"/>
			<stop  offset="0.7082" style="stop-color:#A5A8AB"/>
			<stop  offset="0.779" style="stop-color:#979B9E"/>
			<stop  offset="0.8322" style="stop-color:#898E91"/>
			<stop  offset="0.915" style="stop-color:#82888C"/>
			<stop  offset="1" style="stop-color:#767C80"/>
		</linearGradient>
		<path class="st46" d="M28.1,269.5"/>
		
			<linearGradient id="SVGID_31_" gradientUnits="userSpaceOnUse" x1="26.48" y1="120.387" x2="26.48" y2="120.4807" gradientTransform="matrix(1 0 0 -1 0 395)">
			<stop  offset="0" style="stop-color:#656A6D"/>
			<stop  offset="1" style="stop-color:#656A6D;stop-opacity:0"/>
		</linearGradient>
		<path class="st47" d="M25.8,274.6h1.3c0.2,0,0.4,0,0.6-0.1h-2.4C25.4,274.6,25.6,274.6,25.8,274.6z"/>
	</g>
	<g>
		
			<linearGradient id="SVGID_32_" gradientUnits="userSpaceOnUse" x1="44.3823" y1="120.4706" x2="44.3823" y2="126.8174" gradientTransform="matrix(1 0 0 -1 0 395)">
			<stop  offset="0" style="stop-color:#767C80"/>
			<stop  offset="6.860090e-02" style="stop-color:#898E91"/>
			<stop  offset="0.239" style="stop-color:#9A9FA3"/>
			<stop  offset="0.3128" style="stop-color:#9EA3A7"/>
			<stop  offset="0.5034" style="stop-color:#A7ABAE"/>
			<stop  offset="0.6964" style="stop-color:#A1A6A9"/>
			<stop  offset="0.8348" style="stop-color:#9A9FA3"/>
			<stop  offset="0.9542" style="stop-color:#898E91"/>
			<stop  offset="0.9969" style="stop-color:#767C80"/>
		</linearGradient>
		<path class="st48" d="M45.4,274.5l1.2-4.7c0.1-0.3,0-0.3-0.3-0.3H46c-0.3,0-0.4,0.1-0.5,0.3l-1.2,4.8h-1l-0.3-0.1l0.7-3l0.4-1.7
			c0.1-0.3,0-0.4-0.3-0.4h-0.4c-0.3,0-0.2,0.1-0.3,0.3l-1.2,4.8h-1.1l-0.2-0.1l0.5-2.1l0,0l0.7-2.8c0,0,0,0,0-0.1l0.3-1.2l0.3-0.1h1
			h0.1H44h0.2h0.1c0.5,0,0.9,0.2,1,0.6c0.3-0.4,0.7-0.6,1.2-0.6l0,0l0,0h0.3h0.3c0.8,0,1.2,0.5,0.9,1.4l-1.3,5h-1.1L45.4,274.5z"/>
		
			<linearGradient id="SVGID_33_" gradientUnits="userSpaceOnUse" x1="44.5944" y1="126.7208" x2="44.5944" y2="120.4478" gradientTransform="matrix(1 0 0 -1 0 395)">
			<stop  offset="0" style="stop-color:#CFD2D3"/>
			<stop  offset="0.1938" style="stop-color:#EFEFEF"/>
			<stop  offset="0.3003" style="stop-color:#FFFFFF"/>
			<stop  offset="0.317" style="stop-color:#FFFFFF"/>
			<stop  offset="0.4736" style="stop-color:#FFFFFF"/>
			<stop  offset="0.6191" style="stop-color:#F7F7F6"/>
			<stop  offset="0.8031" style="stop-color:#E7E7E8"/>
			<stop  offset="1" style="stop-color:#CFD2D3"/>
		</linearGradient>
		<path class="st49" d="M44.1,269.4c0.3,0,0.3,0.2,0.3,0.4l-0.4,1.7l-0.8,3.1h1.4l1.2-4.8c0.1-0.2,0.3-0.4,0.5-0.4h0.3
			c0.3,0,0.3,0.2,0.3,0.4l-1.2,4.8h1.4l1.3-5c0.2-0.9-0.1-1.4-0.9-1.4h-0.5h-0.3l0,0l0,0c-0.5,0-0.8,0.2-1.1,0.6
			c-0.1-0.4-0.4-0.6-1-0.6h-0.1h-0.2h-0.5h-0.1h-1.3l-0.3,1.3c0,0,0,0,0,0.1l-0.7,2.8l0,0l-0.6,2.2h1.4l1.2-4.8l0.1-0.3H44.1z"/>
		
			<linearGradient id="SVGID_34_" gradientUnits="userSpaceOnUse" x1="47.0027" y1="126.774" x2="47.0027" y2="126.6739" gradientTransform="matrix(1 0 0 -1 0 395)">
			<stop  offset="0" style="stop-color:#EBECEB"/>
			<stop  offset="1" style="stop-color:#EBECEB;stop-opacity:0"/>
		</linearGradient>
		<path class="st50" d="M47.4,268.2h-0.5h-0.3l0,0l0,0c-0.2,0-0.4,0-0.5,0.1h1.8C47.7,268.3,47.6,268.2,47.4,268.2z"/>
		
			<linearGradient id="SVGID_35_" gradientUnits="userSpaceOnUse" x1="43.7349" y1="126.774" x2="43.7349" y2="126.6739" gradientTransform="matrix(1 0 0 -1 0 395)">
			<stop  offset="0" style="stop-color:#EBECEB"/>
			<stop  offset="1" style="stop-color:#EBECEB;stop-opacity:0"/>
		</linearGradient>
		<path class="st51" d="M44.5,268.2L44.5,268.2h-0.3h-0.5h-0.1h-1.3l0,0.1h2.7C44.9,268.3,44.8,268.2,44.5,268.2z"/>
		
			<linearGradient id="SVGID_36_" gradientUnits="userSpaceOnUse" x1="46.4593" y1="125.4605" x2="46.4001" y2="124.7211" gradientTransform="matrix(1 0 0 -1 0 395)">
			<stop  offset="0" style="stop-color:#656A6D"/>
			<stop  offset="0.7877" style="stop-color:#656A6D;stop-opacity:0"/>
		</linearGradient>
		<path class="st52" d="M46.5,269.9l-0.1,0.4c0.1,0,0.3,0,0.4-0.1l0.1-0.3c0.1-0.3,0-0.4-0.3-0.4h-0.3c-0.1,0-0.2,0-0.3,0.1h0.2
			C46.5,269.5,46.6,269.6,46.5,269.9z"/>
		
			<linearGradient id="SVGID_37_" gradientUnits="userSpaceOnUse" x1="41.5274" y1="120.387" x2="41.5274" y2="120.4807" gradientTransform="matrix(1 0 0 -1 0 395)">
			<stop  offset="0" style="stop-color:#656A6D"/>
			<stop  offset="1" style="stop-color:#656A6D;stop-opacity:0"/>
		</linearGradient>
		<polygon class="st53" points="40.8,274.6 42.2,274.6 42.2,274.5 40.8,274.5 		"/>
		
			<linearGradient id="SVGID_38_" gradientUnits="userSpaceOnUse" x1="43.9566" y1="120.387" x2="43.9566" y2="120.4807" gradientTransform="matrix(1 0 0 -1 0 395)">
			<stop  offset="0" style="stop-color:#656A6D"/>
			<stop  offset="1" style="stop-color:#656A6D;stop-opacity:0"/>
		</linearGradient>
		<polygon class="st54" points="43.3,274.6 44.6,274.6 44.7,274.5 43.3,274.5 		"/>
		
			<linearGradient id="SVGID_39_" gradientUnits="userSpaceOnUse" x1="46.3858" y1="120.387" x2="46.3858" y2="120.4807" gradientTransform="matrix(1 0 0 -1 0 395)">
			<stop  offset="0" style="stop-color:#656A6D"/>
			<stop  offset="1" style="stop-color:#656A6D;stop-opacity:0"/>
		</linearGradient>
		<polygon class="st55" points="45.7,274.5 45.7,274.6 47.1,274.6 47.1,274.5 		"/>
		
			<linearGradient id="SVGID_40_" gradientUnits="userSpaceOnUse" x1="43.9398" y1="125.5086" x2="44.0544" y2="124.8616" gradientTransform="matrix(1 0 0 -1 0 395)">
			<stop  offset="1.077590e-03" style="stop-color:#656A6D"/>
			<stop  offset="0.7877" style="stop-color:#656A6D;stop-opacity:0"/>
		</linearGradient>
		<path class="st56" d="M43.5,269.4L43.5,269.4l0.4,0.1c0,0,0.2,0,0.3,0.1c0,0,0.1,0.1,0,0.4l0.3,0c0,0,0.1-0.3,0-0.4
			c-0.1-0.1-0.2-0.2-0.3-0.2C43.9,269.4,43.5,269.4,43.5,269.4z"/>
	</g>
	<g>
		
			<linearGradient id="SVGID_41_" gradientUnits="userSpaceOnUse" x1="50.4589" y1="120.4706" x2="50.4589" y2="126.8173" gradientTransform="matrix(1 0 0 -1 0 395)">
			<stop  offset="0" style="stop-color:#767C80"/>
			<stop  offset="6.860090e-02" style="stop-color:#898E91"/>
			<stop  offset="0.239" style="stop-color:#9A9FA3"/>
			<stop  offset="0.3128" style="stop-color:#9EA3A7"/>
			<stop  offset="0.5034" style="stop-color:#A7ABAE"/>
			<stop  offset="0.6964" style="stop-color:#A1A6A9"/>
			<stop  offset="0.8348" style="stop-color:#9A9FA3"/>
			<stop  offset="0.9542" style="stop-color:#898E91"/>
			<stop  offset="0.9969" style="stop-color:#767C80"/>
		</linearGradient>
		<path class="st57" d="M52.4,268.2c0,0-0.6,0.1-0.7,0.1l0,0l-0.1,0.2l-0.2-0.1c-0.1-0.1-0.2-0.1-0.3-0.1l0-0.1h-0.4h-0.1
			c-0.1,0-0.1,0-0.2,0l0,0c-0.8,0-1.3,0.5-1.5,1.3l-0.9,3.7c-0.2,0.8,0.3,1.3,1.1,1.3h1.1c0.1,0,0.1,0,0.2,0h1.2l1.6-6.4H52.4z
			 M50.3,273.3h-0.5c-0.3,0-0.4-0.1-0.3-0.3l0.8-3.1c0.1-0.3,0.3-0.3,0.5-0.3h0.1c0.3,0,0.3,0.1,0.3,0.3l-0.8,3.1L50.3,273.3z"/>
		
			<linearGradient id="SVGID_42_" gradientUnits="userSpaceOnUse" x1="50.9245" y1="126.7208" x2="50.9245" y2="120.4478" gradientTransform="matrix(1 0 0 -1 0 395)">
			<stop  offset="0" style="stop-color:#CFD2D3"/>
			<stop  offset="0.1938" style="stop-color:#EFEFEF"/>
			<stop  offset="0.3003" style="stop-color:#FFFFFF"/>
			<stop  offset="0.317" style="stop-color:#FFFFFF"/>
			<stop  offset="0.4736" style="stop-color:#FFFFFF"/>
			<stop  offset="0.6191" style="stop-color:#F7F7F6"/>
			<stop  offset="0.8031" style="stop-color:#E7E7E8"/>
			<stop  offset="1" style="stop-color:#CFD2D3"/>
		</linearGradient>
		<path class="st58" d="M51.9,274.6h-1.2c-0.1,0-0.1,0-0.2,0h-1.3c-0.8,0-1.2-0.5-0.9-1.3l0.9-3.7c0.2-0.8,0.8-1.3,1.5-1.3l0,0
			c0.1,0,0.1,0,0.2,0h0.1c0.3,0,0.5,0.1,0.8,0.2l0.2,0.1l0.1-0.2c0-0.1,0.1-0.1,0.1-0.1s0.1,0,0.2,0h0.2h0.2h0.7L51.9,274.6z
			 M51.4,269.4h-0.3c-0.3,0-0.5,0.2-0.5,0.4l-0.8,3.1c-0.1,0.3,0.1,0.4,0.3,0.4h0.2h0.4l0.1-0.4l0.8-3.1
			C51.8,269.6,51.7,269.4,51.4,269.4"/>
		
			<linearGradient id="SVGID_43_" gradientUnits="userSpaceOnUse" x1="51.0321" y1="126.7946" x2="51.0321" y2="126.7946" gradientTransform="matrix(1 0 0 -1 0 395)">
			<stop  offset="0" style="stop-color:#EBECEB"/>
			<stop  offset="1" style="stop-color:#EBECEB;stop-opacity:0"/>
		</linearGradient>
		<path class="st59" d="M51.1,268.2L51.1,268.2c-0.1,0-0.2,0-0.3,0l0,0c0,0,0,0-0.1,0h0.5C51.2,268.2,51.2,268.2,51.1,268.2z"/>
		
			<linearGradient id="SVGID_44_" gradientUnits="userSpaceOnUse" x1="52.9022" y1="126.774" x2="52.9022" y2="126.6739" gradientTransform="matrix(1 0 0 -1 0 395)">
			<stop  offset="0" style="stop-color:#EBECEB"/>
			<stop  offset="1" style="stop-color:#EBECEB;stop-opacity:0"/>
		</linearGradient>
		<path class="st60" d="M53.5,268.2h-0.7h-0.2h-0.2c0,0-0.1,0-0.1,0L53.5,268.2L53.5,268.2z"/>
		
			<linearGradient id="SVGID_45_" gradientUnits="userSpaceOnUse" x1="52.8443" y1="126.774" x2="52.8443" y2="126.6739" gradientTransform="matrix(1 0 0 -1 0 395)">
			<stop  offset="0" style="stop-color:#EBECEB"/>
			<stop  offset="1" style="stop-color:#EBECEB;stop-opacity:0"/>
		</linearGradient>
		<path class="st61" d="M52.5,268.2c0,0-0.1,0-0.2,0l0,0c0,0,0,0,0,0c0,0-0.1,0-0.1,0.1h1.3l0-0.1l0-0.1H52.5z"/>
		
			<linearGradient id="SVGID_46_" gradientUnits="userSpaceOnUse" x1="50.9935" y1="126.774" x2="50.9935" y2="126.6739" gradientTransform="matrix(1 0 0 -1 0 395)">
			<stop  offset="0" style="stop-color:#EBECEB"/>
			<stop  offset="1" style="stop-color:#EBECEB;stop-opacity:0"/>
		</linearGradient>
		<path class="st62" d="M51.7,268.3c-0.1,0-0.2-0.1-0.3-0.1l0,0c0,0,0,0-0.1,0c0,0,0,0,0,0l0,0c-0.3,0-0.6,0-0.6,0l0,0
			c-0.1,0-0.2,0-0.3,0.1H51.7z"/>
		
			<linearGradient id="SVGID_47_" gradientUnits="userSpaceOnUse" x1="51.2716" y1="125.5626" x2="51.2716" y2="124.8548" gradientTransform="matrix(1 0 0 -1 0 395)">
			<stop  offset="0" style="stop-color:#656A6D"/>
			<stop  offset="0.7877" style="stop-color:#656A6D;stop-opacity:0"/>
		</linearGradient>
		<path class="st63" d="M51.2,269.8l-0.1,0.3c0,0,0,0,0,0c0.2,0,0.3,0,0.5-0.1l0.1-0.3c0.1-0.3,0-0.4-0.3-0.4h-0.3
			c-0.1,0-0.2,0-0.3,0.1h0.1C51.2,269.5,51.3,269.6,51.2,269.8z"/>
		
			<linearGradient id="SVGID_48_" gradientUnits="userSpaceOnUse" x1="48.6401" y1="121.6587" x2="48.6401" y2="120.3474" gradientTransform="matrix(1 0 0 -1 0 395)">
			<stop  offset="0" style="stop-color:#B0B3B6;stop-opacity:7.916400e-02"/>
			<stop  offset="0.5138" style="stop-color:#C7CBCC"/>
			<stop  offset="0.6866" style="stop-color:#BEC1C3;stop-opacity:0.6447"/>
			<stop  offset="1" style="stop-color:#B0B3B6;stop-opacity:0"/>
		</linearGradient>
		<path class="st64" d="M48.4,273.3C48.4,273.3,48.4,273.3,48.4,273.3c-0.2,0-0.3,0-0.4,0h0c-0.1,0.8,0.4,1.2,1.2,1.2h0.3
			C48.6,274.6,48.2,274.1,48.4,273.3z"/>
		
			<linearGradient id="SVGID_49_" gradientUnits="userSpaceOnUse" x1="50.4151" y1="120.387" x2="50.4151" y2="120.4807" gradientTransform="matrix(1 0 0 -1 0 395)">
			<stop  offset="0" style="stop-color:#656A6D"/>
			<stop  offset="1" style="stop-color:#656A6D;stop-opacity:0"/>
		</linearGradient>
		<path class="st65" d="M49.4,274.6h1.3c0.1,0,0.1,0,0.2,0h1.2l0-0.1h-3.1C49,274.6,49.2,274.6,49.4,274.6z"/>
		
			<linearGradient id="SVGID_50_" gradientUnits="userSpaceOnUse" x1="49.9499" y1="121.6552" x2="50.8256" y2="121.6552" gradientTransform="matrix(1 0 0 -1 0 395)">
			<stop  offset="0" style="stop-color:#656A6D"/>
			<stop  offset="0.7877" style="stop-color:#656A6D;stop-opacity:0"/>
		</linearGradient>
		<path class="st66" d="M50.3,273.3l0.5,0.1h-0.6c0,0-0.2,0-0.2-0.1H50.3z"/>
	</g>
	<g>
		
			<linearGradient id="SVGID_51_" gradientUnits="userSpaceOnUse" x1="39.9658" y1="120.4706" x2="39.9658" y2="126.8174" gradientTransform="matrix(1 0 0 -1 0 395)">
			<stop  offset="0" style="stop-color:#767C80"/>
			<stop  offset="6.860090e-02" style="stop-color:#898E91"/>
			<stop  offset="0.239" style="stop-color:#9A9FA3"/>
			<stop  offset="0.3128" style="stop-color:#9EA3A7"/>
			<stop  offset="0.5034" style="stop-color:#A7ABAE"/>
			<stop  offset="0.6964" style="stop-color:#A1A6A9"/>
			<stop  offset="0.8348" style="stop-color:#9A9FA3"/>
			<stop  offset="0.9542" style="stop-color:#898E91"/>
			<stop  offset="0.9969" style="stop-color:#767C80"/>
		</linearGradient>
		<polygon class="st67" points="38.5,274.4 38.6,274 40,268.3 40.2,268.2 41.4,268.2 39.8,274.6 38.6,274.6 		"/>
		
			<linearGradient id="SVGID_52_" gradientUnits="userSpaceOnUse" x1="40.1007" y1="126.7208" x2="40.1007" y2="120.4478" gradientTransform="matrix(1 0 0 -1 0 395)">
			<stop  offset="0" style="stop-color:#CFD2D3"/>
			<stop  offset="0.1938" style="stop-color:#EFEFEF"/>
			<stop  offset="0.3003" style="stop-color:#FFFFFF"/>
			<stop  offset="0.317" style="stop-color:#FFFFFF"/>
			<stop  offset="0.4736" style="stop-color:#FFFFFF"/>
			<stop  offset="0.6191" style="stop-color:#F7F7F6"/>
			<stop  offset="0.8031" style="stop-color:#E7E7E8"/>
			<stop  offset="1" style="stop-color:#CFD2D3"/>
		</linearGradient>
		<polygon class="st68" points="38.8,274 40.2,268.2 41.6,268.2 40,274.6 38.6,274.6 		"/>
		
			<linearGradient id="SVGID_53_" gradientUnits="userSpaceOnUse" x1="40.8815" y1="126.774" x2="40.8815" y2="126.6739" gradientTransform="matrix(1 0 0 -1 0 395)">
			<stop  offset="0" style="stop-color:#EBECEB"/>
			<stop  offset="1" style="stop-color:#EBECEB;stop-opacity:0"/>
		</linearGradient>
		<polygon class="st69" points="41.6,268.2 40.2,268.2 40.2,268.3 41.6,268.3 		"/>
		
			<linearGradient id="SVGID_54_" gradientUnits="userSpaceOnUse" x1="39.3199" y1="120.387" x2="39.3199" y2="120.4807" gradientTransform="matrix(1 0 0 -1 0 395)">
			<stop  offset="0" style="stop-color:#656A6D"/>
			<stop  offset="1" style="stop-color:#656A6D;stop-opacity:0"/>
		</linearGradient>
		<polygon class="st70" points="38.6,274.6 40,274.6 40,274.5 38.6,274.5 		"/>
	</g>
	<g>
		
			<linearGradient id="SVGID_55_" gradientUnits="userSpaceOnUse" x1="30.9238" y1="120.5002" x2="30.9238" y2="126.7801" gradientTransform="matrix(1 0 0 -1 0 395)">
			<stop  offset="0" style="stop-color:#656A6D"/>
			<stop  offset="5.845438e-02" style="stop-color:#787C80"/>
			<stop  offset="0.1176" style="stop-color:#84898D"/>
			<stop  offset="0.1721" style="stop-color:#898E91"/>
			<stop  offset="0.2016" style="stop-color:#8F9397"/>
			<stop  offset="0.3023" style="stop-color:#A0A4A7"/>
			<stop  offset="0.4026" style="stop-color:#ACAFB2"/>
			<stop  offset="0.5017" style="stop-color:#B0B3B6"/>
			<stop  offset="0.6253" style="stop-color:#ADB1B3"/>
			<stop  offset="0.7082" style="stop-color:#A5A8AB"/>
			<stop  offset="0.779" style="stop-color:#979B9E"/>
			<stop  offset="0.8322" style="stop-color:#898E91"/>
			<stop  offset="0.915" style="stop-color:#82888C"/>
			<stop  offset="1" style="stop-color:#767C80"/>
		</linearGradient>
		<polygon class="st71" points="32.4,268.4 30.9,274.5 30.7,274.6 29.5,274.6 29.6,274 31,268.2 32.3,268.2 		"/>
		
			<linearGradient id="SVGID_56_" gradientUnits="userSpaceOnUse" x1="30.8081" y1="126.7208" x2="30.8081" y2="120.4478" gradientTransform="matrix(1 0 0 -1 0 395)">
			<stop  offset="0" style="stop-color:#CFD2D3"/>
			<stop  offset="0.1938" style="stop-color:#EFEFEF"/>
			<stop  offset="0.3003" style="stop-color:#FFFFFF"/>
			<stop  offset="0.317" style="stop-color:#FFFFFF"/>
			<stop  offset="0.4736" style="stop-color:#FFFFFF"/>
			<stop  offset="0.6191" style="stop-color:#F7F7F6"/>
			<stop  offset="0.8031" style="stop-color:#E7E7E8"/>
			<stop  offset="1" style="stop-color:#CFD2D3"/>
		</linearGradient>
		<polygon class="st72" points="29.5,274 30.9,268.2 32.3,268.2 30.7,274.6 29.3,274.6 		"/>
		
			<linearGradient id="SVGID_57_" gradientUnits="userSpaceOnUse" x1="31.5793" y1="126.774" x2="31.5793" y2="126.6739" gradientTransform="matrix(1 0 0 -1 0 395)">
			<stop  offset="0" style="stop-color:#EBECEB"/>
			<stop  offset="1" style="stop-color:#EBECEB;stop-opacity:0"/>
		</linearGradient>
		<polygon class="st73" points="32.3,268.2 30.9,268.2 30.9,268.3 32.3,268.3 		"/>
		
			<linearGradient id="SVGID_58_" gradientUnits="userSpaceOnUse" x1="30.0177" y1="120.387" x2="30.0177" y2="120.4807" gradientTransform="matrix(1 0 0 -1 0 395)">
			<stop  offset="0" style="stop-color:#656A6D"/>
			<stop  offset="1" style="stop-color:#656A6D;stop-opacity:0"/>
		</linearGradient>
		<polygon class="st74" points="29.3,274.6 30.7,274.6 30.7,274.5 29.4,274.5 		"/>
	</g>
	<g>
		<path class="st10" d="M27.6,265.7L27.6,265.7c0,0.2-0.1,0.2-0.2,0.2h-0.1c-0.1,0-0.2-0.1-0.1-0.2l0.1-0.3h0.1h0.3h0.6l0.3-1
			c0.1-0.3-0.1-0.6-0.4-0.6h-0.5c-0.3,0-0.6,0.2-0.7,0.6l-0.4,1.5c-0.1,0.3,0.1,0.5,0.4,0.5h0.5c0.3,0,0.6-0.2,0.7-0.5l0-0.2H27.6z
			 M27.5,264.5c0-0.1,0.1-0.2,0.2-0.2h0.1c0.1,0,0.1,0.1,0.1,0.2l-0.1,0.4h-0.4L27.5,264.5z"/>
		<path class="st10" d="M21.2,263.9h-0.5c0,0,0,0-0.1,0h-0.5l-0.1,0.6l0,0l-0.6,2.4H20l0.1-0.5l0.1,0c0.1,0.1,0.2,0.1,0.3,0.1h0
			c0,0,0.1,0,0.1,0l0,0c0.3,0,0.5-0.2,0.6-0.5l0.4-1.5C21.7,264.1,21.6,263.9,21.2,263.9 M21,264.5l-0.3,1.3c0,0.1-0.1,0.2-0.2,0.2
			h-0.1c-0.1,0-0.1-0.1-0.1-0.2l0.3-1.3l0,0l0-0.2h0.2l0,0h0C21,264.3,21.1,264.4,21,264.5"/>
		<path class="st12" d="M23.1,266.5h-0.5c0,0,0,0-0.1,0H22c-0.3,0-0.5-0.2-0.4-0.5l0.4-1.5c0.1-0.3,0.3-0.5,0.6-0.5l0,0
			c0,0,0.1,0,0.1,0h0c0.1,0,0.2,0,0.3,0.1l0.1,0l0-0.1c0,0,0,0,0.1-0.1s0,0,0.1,0h0.1h0.1h0.3L23.1,266.5z M22.9,264.3L22.9,264.3
			c-0.2,0-0.3,0.1-0.3,0.2l-0.3,1.3c0,0.1,0,0.2,0.1,0.2h0l0,0h0.2l0-0.2l0,0l0.3-1.3C23,264.4,23,264.3,22.9,264.3"/>
		<path class="st12" d="M26.2,263.9H26h-0.1l0,0l0,0c-0.2,0-0.3,0.1-0.4,0.3c0-0.2-0.2-0.3-0.4-0.3h0h-0.1h-0.2h0h-0.5l-0.1,0.5v0
			l-0.3,1.1l0,0l-0.2,0.9h0.6l0.5-1.9l0,0l0-0.1h0.2l0,0h0.1c0.1,0,0.1,0.1,0.1,0.2l-0.2,0.7l-0.3,1.2h0.6l0.5-1.9
			c0-0.1,0.1-0.2,0.2-0.2h0.1c0.1,0,0.1,0.1,0.1,0.2l-0.5,1.9H26l0.5-2C26.6,264.1,26.5,263.9,26.2,263.9"/>
	</g>
	<g>
		<path class="st10" d="M50.3,276.1h-0.2H50c-0.3,0-0.6,0.2-0.7,0.5l-0.1,0.5l-0.3,1.4h0.6l0.2-0.9l0,0l0.1-0.4l0-0.1l0,0l0.1-0.4
			c0-0.1,0.1-0.2,0.2-0.2h0.1l0,0h0.4l0.1-0.5H50.3z"/>
		<path class="st10" d="M48.8,277.2l0.3-1.1h-0.3h-0.1h-0.1c0,0-0.1,0-0.1,0c0,0,0,0-0.1,0.1l0,0.1l-0.1,0c-0.1-0.1-0.2-0.1-0.3-0.1
			h0c0,0-0.1,0-0.1,0l0,0c-0.3,0-0.5,0.2-0.6,0.5l-0.2,1l0,0l-0.1,0.4c-0.1,0.3,0.1,0.5,0.4,0.5h0.5l0,0.1c0,0.1-0.1,0.2-0.2,0.2
			h-0.1l0,0h-0.7l-0.1,0.5h0.7h0.2h0.1c0.3,0,0.6-0.2,0.7-0.5l0.1-0.3l0,0L48.8,277.2L48.8,277.2z M47.7,278c-0.1,0-0.2-0.1-0.1-0.2
			l0.2-0.7l0,0l0.1-0.5c0-0.1,0.1-0.2,0.2-0.2h0.1c0.1,0,0.1,0.1,0.1,0.2l-0.2,0.8l0,0l-0.1,0.3l0,0.2L47.7,278L47.7,278L47.7,278z"
			/>
		<polygon class="st10" points="45.9,278.1 45.8,278.5 46.4,278.5 46.5,278.1 		"/>
	</g>
</g>
<g>
	<g id="svg_1">
		<g id="svg_2">
			<path id="svg_3" class="st75" d="M35.1,305.4c0-0.1-0.1-0.2-0.2-0.2c-0.3-0.4-0.8-0.6-1.5-0.6c-0.2,0-0.5,0-0.7,0.1h-2.3l0.3-1.7
				h-3.1c0,0-1.1,0.3-3.4,0.9l-0.2,0.7c-0.1,0-0.3-0.1-0.5-0.1s-0.4,0-0.6,0.1h-2.9l-0.1,0.6c-0.5-0.5-1.2-0.7-2.2-0.7
				c-1.1,0-2,0.3-2.6,0.9c-0.1-0.1-0.1-0.2-0.2-0.2c-0.4-0.4-0.9-0.7-1.6-0.7c-0.2,0-0.5,0-0.7,0.1h-2.9l0,0.1l-0.1,0
				c-0.5-0.1-1-0.2-1.5-0.2c-1.8,0-2.8,0.6-3.1,1.8c0,0.2,0,0.3,0,0.4c0,0,0,0.1,0,0.2l-0.5,2.5l0.6,0.2c0.6,0.2,1.2,0.2,1.7,0.2
				c0.7,0,1.3-0.1,1.9-0.4l-0.4,1.8H12l0.3-1.5c0.2,0,0.4,0.1,0.6,0.1c0.8,0,1.5-0.3,2-0.9l0.1,0.1c0.5,0.6,1.2,0.8,2.3,0.8
				c0.9,0,1.6-0.2,2.2-0.6l-0.1,0.5h3.2l0.4-1.9c0-0.1,0.1-0.2,0.2-0.3c0.1-0.1,0.2-0.2,0.3-0.2h0.2l0.2,0.1l0,0.1
				c0,0.2-0.1,0.5-0.1,0.6c0,0.4,0.1,0.8,0.3,1.1c0.3,0.4,0.8,0.6,1.5,0.6c0.3,0,0.6,0,0.9-0.1H34l-0.2,1.2l0.6,0.2
				c0.6,0.2,1.3,0.3,2.1,0.3c1.6,0,2.6-0.5,3.2-1.6h2.6l0,0c0.2,0.1,0.4,0.1,0.7,0.1c0.8,0,1.5-0.3,2-0.9L45,309
				c0.5,0.6,1.2,0.8,2.2,0.8c0.7,0,1.4-0.1,2-0.2l0.4-0.1l0.1-0.6c0.1,0.2,0.1,0.3,0.2,0.4c0.3,0.4,0.8,0.6,1.5,0.6
				c0.5,0,0.9-0.1,1.5-0.2l0.1,0c0,0,0.1,0.1,0.1,0.1c0.1,0,0.2,0.1,0.3,0.1h1.1c0,0,0.3,0,0.3,0.1v0l-0.1,0.4v0.1
				c0,0.1,0,0.3,0.1,0.4c0.1,0.2,0.2,0.3,0.4,0.3c0.6,0.2,1.3,0.3,2.1,0.3c1.6,0,2.7-0.5,3.2-1.6c0.1,0,0.2,0,0.3,0h1.8
				c0.2,0,0.3,0,0.4-0.2l0,0c0.1-0.1,0.2-0.2,0.2-0.4l0.3-1.4c0,0,0,0,0,0c0-0.1,0.1-0.2,0.2-0.3s0.2-0.1,0.3-0.1h0
				c0.1,0,0.1,0,0.2,0l0,0c0.1,0.1,0.3,0.1,0.4,0.1l0,0c0.2,0,0.3-0.1,0.4-0.2c0.1-0.1,0.2-0.2,0.2-0.4l0.3-1.5c0-0.2,0-0.3,0-0.5
				c-0.1-0.2-0.2-0.2-0.3-0.3c-0.2-0.1-0.5-0.2-0.7-0.2c-0.3,0-0.6,0-0.9,0.2c-0.1-0.1-0.2-0.1-0.3-0.1h-1.7c-0.1,0-0.2,0-0.3,0.1
				c0,0,0,0,0,0l0,0c-0.1-0.1-0.2-0.1-0.4-0.1h-1.7c-0.1,0-0.2,0-0.3,0.1c-0.3-0.1-0.6-0.2-0.9-0.2c-0.8,0-1.4,0.3-1.9,0.8l0,0
				c-0.4,0.4-0.7,1-0.9,1.7c0,0.1,0,0.2,0,0.2h-0.4c0,0,0,0-0.1,0h-0.9l0.6-2.7h-0.9l0.3-1.7l-3.4,1l-0.2,0.7h-0.6l-0.1,0.3
				c-0.4-0.3-0.9-0.4-1.5-0.4c-1.1,0-2,0.3-2.6,0.9c0-0.1-0.1-0.2-0.2-0.2c-0.4-0.4-0.9-0.7-1.5-0.7c0,0-0.2,0-0.3,0l0.3-1.6h-3.2
				l-0.3,1.7h-2.5v0c-0.2-0.1-0.5-0.1-0.7-0.1C36.3,304.6,35.6,304.9,35.1,305.4"/>
			<path id="svg_4" class="st76" d="M8.9,306.6c-0.3,0-0.6-0.1-0.7-0.1c-0.2,0-0.3-0.1-0.3-0.2c0-0.2,0.3-0.3,0.7-0.3
				c0.4,0,0.8,0.1,1.1,0.2l0.2-1c-0.5-0.1-0.9-0.2-1.4-0.2c-1.4,0-2.3,0.4-2.4,1.3C6,307,6.3,307.4,7,307.5c0.2,0,0.4,0.1,0.7,0.1
				c0.2,0.1,0.3,0.1,0.3,0.2c0,0.2-0.3,0.2-0.7,0.2c-0.5,0-0.9-0.1-1.3-0.3l-0.2,1.1c0.5,0.2,1.1,0.2,1.6,0.2c0.5,0,1-0.1,1.4-0.3
				c0.5-0.2,0.9-0.6,1-1.1C9.8,307.1,9.5,306.8,8.9,306.6"/>
			<path id="svg_5" class="st76" d="M13.5,305.3c-0.6,0-1.1,0.2-1.4,0.8l0,0l0,0l0.2-0.7h-1.7l-1.1,5.3h1.8l0.4-2l0,0
				c0.2,0.4,0.5,0.6,1,0.6c0.5,0,1-0.2,1.4-0.6c0.3-0.3,0.5-0.8,0.7-1.3c0.1-0.6,0.1-1.1-0.1-1.4C14.5,305.5,14.1,305.3,13.5,305.3
				 M12.9,307.3c-0.1,0.5-0.3,0.8-0.6,0.8c-0.3,0-0.4-0.3-0.3-0.8c0.1-0.5,0.3-0.8,0.6-0.8C12.9,306.5,13,306.7,12.9,307.3"/>
			<path id="svg_6" class="st76" d="M17.9,305.3c-1.6,0-2.5,0.6-2.8,1.9c-0.1,0.6,0,1.1,0.3,1.5c0.3,0.4,0.9,0.5,1.7,0.5
				c1.6,0,2.5-0.7,2.8-2C20.1,305.9,19.5,305.3,17.9,305.3 M17.9,307.2c-0.2,0.6-0.4,0.9-0.6,0.9s-0.3-0.3-0.2-0.9
				c0.1-0.6,0.3-0.8,0.6-0.8C17.9,306.3,18,306.6,17.9,307.2"/>
			<path id="svg_7" class="st76" d="M22.1,306.2L22.1,306.2l0.2-0.9h-1.7l-0.8,3.8h1.8l0.3-1.4c0.1-0.3,0.2-0.5,0.4-0.7
				s0.5-0.3,0.7-0.3c0.2,0,0.3,0,0.5,0.1l0.3-1.5c-0.1-0.1-0.2-0.1-0.4-0.1C23,305.3,22.5,305.6,22.1,306.2"/>
			<path id="svg_8" class="st76" d="M26.3,307.5l0.2-1.1h0.9l0.2-1.1h-0.9L27,304l-2,0.5l-0.2,0.9h-0.7l-0.2,1.1h0.7l-0.3,1.3
				c-0.2,1,0.2,1.5,1.1,1.5c0.4,0,0.8-0.1,1.3-0.2l0.2-1.1c-0.1,0-0.3,0.1-0.5,0.1C26.3,308,26.2,307.8,26.3,307.5"/>
			<polygon id="svg_9" class="st76" points="28.1,305.3 27.3,309.1 29.1,309.1 29.9,305.3 			"/>
			<polygon id="svg_10" class="st76" points="30.3,303.7 28.4,303.7 28.1,304.9 30,304.9 			"/>
			<path id="svg_11" class="st76" d="M33.5,305.3c-0.6,0-1.1,0.2-1.4,0.7l0,0l0.2-0.7h-1.8l-0.8,3.8h1.8l0.5-2.2
				c0.1-0.4,0.2-0.5,0.4-0.5c0.2,0,0.3,0.2,0.2,0.5l-0.5,2.2H34l0.6-2.6C34.8,305.7,34.4,305.3,33.5,305.3"/>
			<path id="svg_12" class="st76" d="M38.3,305.3l-0.2,0.8h0c0-0.3-0.1-0.5-0.3-0.7c-0.2-0.2-0.5-0.2-0.8-0.2c-0.6,0-1,0.2-1.4,0.6
				c-0.3,0.4-0.6,0.8-0.7,1.4c-0.1,0.6-0.1,1,0.1,1.3c0.2,0.4,0.6,0.6,1.1,0.6c0.5,0,1-0.2,1.4-0.6h0c-0.2,0.8-0.6,1.1-1.5,1.1
				c-0.5,0-1-0.1-1.4-0.4l-0.2,1.2c0.5,0.2,1.1,0.2,1.9,0.2c1.6,0,2.6-0.7,2.9-2l0.7-3.4H38.3L38.3,305.3L38.3,305.3z M37.8,307.2
				c-0.1,0.5-0.3,0.7-0.6,0.7c-0.3,0-0.4-0.2-0.3-0.8c0.1-0.5,0.3-0.8,0.6-0.8C37.8,306.4,38,306.7,37.8,307.2"/>
			<path id="svg_13" class="st77" d="M43.8,305.3c-0.5,0-0.9,0.2-1.3,0.6l0,0l0.5-2.1h-1.9l-1.1,5.4h1.7l0.2-0.7l0,0
				c0.1,0.5,0.5,0.8,1.1,0.8c0.6,0,1.1-0.2,1.4-0.6c0.3-0.4,0.6-0.8,0.7-1.4c0.1-0.6,0.1-1-0.1-1.4
				C44.7,305.4,44.3,305.3,43.8,305.3 M43.1,307.2c-0.1,0.5-0.3,0.8-0.6,0.8c-0.3,0-0.4-0.3-0.3-0.8c0.1-0.6,0.3-0.8,0.6-0.8
				C43.1,306.4,43.2,306.7,43.1,307.2"/>
			<path id="svg_14" class="st77" d="M48.1,305.3c-1.6,0-2.5,0.6-2.8,1.9c-0.1,0.6,0,1.1,0.3,1.5c0.3,0.4,0.9,0.5,1.6,0.5
				c0.7,0,1.3-0.1,1.8-0.2l0.2-1c-0.3,0.2-0.8,0.2-1.3,0.2c-0.7,0-1-0.2-0.9-0.6h2.5l0-0.2C49.9,306,49.4,305.3,48.1,305.3
				 M48.1,306.9h-1c0.1-0.5,0.3-0.7,0.7-0.7C48.1,306.1,48.2,306.4,48.1,306.9"/>
			<path id="svg_15" class="st77" d="M52.7,305.3l0.3-1.4l-2,0.5l-0.2,0.9h-0.7l-0.2,1.1h0.7l-0.3,1.3c-0.2,1,0.2,1.5,1.1,1.5
				c0.4,0,0.8-0.1,1.3-0.2l0.2-1.1c-0.1,0-0.3,0.1-0.5,0.1c-0.2,0-0.4-0.1-0.3-0.4l0,0l0.2-1.1h0.9l0.2-1.1l0-0.1L52.7,305.3
				L52.7,305.3L52.7,305.3z"/>
			<path id="svg_16" class="st76" d="M59.2,305.4l-0.2,0.8h0c0-0.3-0.1-0.5-0.3-0.6c-0.2-0.2-0.5-0.2-0.8-0.2c-0.6,0-1,0.2-1.4,0.6
				c-0.3,0.4-0.6,0.8-0.7,1.4c-0.1,0.5-0.1,1,0.1,1.3c0.2,0.4,0.6,0.6,1.1,0.6c0.5,0,1-0.2,1.4-0.6l0,0c-0.2,0.8-0.6,1.1-1.5,1.1
				c-0.5,0-1-0.1-1.4-0.4l-0.2,1.2c0.5,0.2,1.1,0.2,1.9,0.2c1.6,0,2.6-0.7,2.9-2l0.7-3.4L59.2,305.4L59.2,305.4z M58.8,307.3
				c-0.1,0.5-0.3,0.7-0.6,0.7c-0.3,0-0.4-0.2-0.3-0.8c0.1-0.5,0.3-0.8,0.6-0.8C58.8,306.5,58.9,306.7,58.8,307.3"/>
			<path id="svg_17" class="st76" d="M64.4,305.4c-0.5,0-1,0.3-1.4,0.9l0,0l0.2-0.9h-1.7l-0.8,3.8h1.8l0.3-1.4
				c0.1-0.3,0.2-0.5,0.4-0.7c0.2-0.2,0.5-0.3,0.7-0.3c0.2,0,0.4,0,0.5,0.1l0.3-1.5C64.7,305.4,64.5,305.4,64.4,305.4"/>
			<polygon id="svg_18" class="st76" points="53.3,309.3 55.2,309.3 55.4,308 53.6,308 			"/>
		</g>
	</g>
</g>
<g>
	<g>
		<path class="st78" d="M70,359c-23,0-46,0-69.1,0c-0.7,0-0.7-0.2-0.7-0.8c0-11.2,0-22.3,0-33.5c0-0.6,0.1-0.8,0.7-0.8
			c23,0,46,0,69.1,0c0.2,0.3,0.1,0.6,0.1,0.9c0,11.1,0,22.2,0,33.3C70.1,358.4,70.2,358.7,70,359z"/>
		<path class="st78" d="M70,359c0-11.7,0-23.3,0-35c0.3-0.1,0.2,0.2,0.2,0.3c0,11.5,0,23,0,34.4C70.2,358.8,70.3,359,70,359z"/>
	</g>
	<g>
		<g id="betsson_logo_white">
			<g id="Betsson-RGB-logotype" transform="translate(0.000000, 5.000000)">
				<g id="Group">
					<path id="Shape" class="st12" d="M15.8,337.9c0,1.1-0.9,2.3-2.6,2.3c-1,0-2-0.6-2.6-1.3c0-0.2,0-2.1,0-2.3
						c0.5-0.5,1.3-1.2,2.6-1.2C14.5,335.4,15.8,336.1,15.8,337.9 M13.3,334.3c-1.3,0-2,0.4-2.7,0.9v-2.7c0-0.3-0.2-0.5-0.5-0.5H9.4
						v7.7l-0.1,1.3h0.6H10c0.3,0,0.4-0.2,0.5-0.4l0.1-0.4c0.8,0.6,1.5,1,2.9,1c2.7,0,3.7-2.1,3.7-3.4
						C17.1,336.5,16.3,334.3,13.3,334.3"/>
					<path class="st12" d="M19.1,337c0.3-1,1.1-1.6,2.3-1.6c1.7,0,2.2,1.1,2.4,1.6H19.1L19.1,337z M21.3,334.3
						c-2.1,0-3.6,1.5-3.6,3.5c0,2,1.6,3.5,3.7,3.5c2.1,0,2.8-0.8,3.4-1.4l0.2-0.3l-1-0.7l-0.1,0.2c-0.4,0.5-0.9,1.1-2.4,1.1
						c-1.5,0-2.4-1-2.5-2h6.2l0-0.3c0-1-0.3-1.9-0.9-2.5C23.6,334.7,22.5,334.3,21.3,334.3L21.3,334.3z"/>
					<path class="st12" d="M29.1,340.2c-1,0-1.1-0.3-1.1-0.9v-3.7h2.5V335c0-0.3-0.2-0.5-0.5-0.5h-2.1v-1.6c0-0.3-0.2-0.5-0.5-0.5
						h-0.8v2.1h-1.3v1.1h1.3v3.8c0,0.5,0,1.9,2.2,1.9c0.4,0,0.9-0.1,1.6-0.2l0.1,0V340l-0.3,0.1C29.9,340.1,29.5,340.2,29.1,340.2"
						/>
					<path class="st12" d="M34.8,337.1c-1.1-0.1-2-0.2-2-0.8c0-0.8,1-0.9,1.7-0.9c1.1,0,1.9,0.4,2.5,1.1l0.1,0.1l0.9-0.8l-0.1-0.1
						c-0.3-0.4-1-1.4-3.3-1.4c-1.4,0-2.9,0.5-2.9,2.1c0,1.6,1.7,1.8,3.1,1.9c1.1,0.1,2.1,0.3,2.1,0.9c0,0.7-1,0.9-1.8,0.9
						c-1.2,0-2.1-0.4-2.7-1.3l-0.1-0.1l-0.9,0.9l0.1,0.1c0.9,1.1,2.1,1.6,3.6,1.6c2,0,3.2-0.8,3.2-2.1
						C38.1,337.5,36.3,337.3,34.8,337.1"/>
					<path class="st12" d="M42.3,337.1c-1.1-0.1-2-0.2-2-0.8c0-0.8,1-0.9,1.7-0.9c1.1,0,1.9,0.4,2.5,1.1l0.1,0.1l0.9-0.8l-0.1-0.1
						c-0.3-0.4-1-1.4-3.3-1.4c-1.4,0-2.9,0.5-2.9,2.1c0,1.6,1.7,1.8,3.1,1.9c1.1,0.1,2.1,0.3,2.1,0.9c0,0.7-1,0.9-1.8,0.9
						c-1.2,0-2.1-0.4-2.7-1.3l-0.1-0.1l-0.9,0.9l0.1,0.1c0.9,1.1,2.1,1.6,3.6,1.6c2,0,3.2-0.8,3.2-2.1
						C45.6,337.5,43.8,337.3,42.3,337.1"/>
					<path class="st12" d="M52.5,337.8c0,1.4-1,2.4-2.5,2.4c-1.5,0-2.5-0.9-2.5-2.4c0-1.1,0.8-2.4,2.5-2.4
						C51.7,335.4,52.5,336.6,52.5,337.8 M50,334.3c-2.2,0-3.8,1.4-3.8,3.4c0,2.2,1.5,3.6,3.8,3.6c2.3,0,3.8-1.4,3.8-3.6
						C53.8,335.7,52.2,334.3,50,334.3"/>
					<path class="st12" d="M58.5,334.3c-0.9,0-1.7,0.3-2.5,0.9V335c0-0.3-0.2-0.5-0.5-0.5h-0.8v6.6H56v-4.5c0.4-0.5,1.3-1.2,2.4-1.2
						c0.6,0,1,0.1,1.2,0.4c0.3,0.3,0.4,0.6,0.4,1.1v4.1h1.3v-4.3C61.2,334.6,59.5,334.3,58.5,334.3"/>
				</g>
			</g>
		</g>
	</g>
</g>
<g>
	<path class="st10" d="M42,231.3c0.8,0,1.6-0.1,2.3,0c1.1,0.1,1.6,0.8,1.7,1.8c0.1,1.2-0.1,2.4-0.4,3.5c-0.5,1.3-1.5,1.9-2.8,2
		c-1.1,0.1-2.2,0-3.2-0.2c-0.8-0.2-1-0.4-0.9-1.3c0.3-2.8,0.7-5.6,1-8.3c0-0.3,0.2-0.5,0.6-0.6c0.6,0,1.2-0.1,1.7-0.2
		c0.3,0,0.4,0.1,0.4,0.4c-0.1,0.9-0.2,1.8-0.3,2.6C42,231.1,42,231.2,42,231.3z M41.2,237c0.3,0,0.6,0,0.9,0c0.5,0,0.8-0.2,0.9-0.7
		c0.2-0.9,0.3-1.8,0.4-2.8c0-0.2-0.1-0.5-0.2-0.6c-0.5-0.1-0.9,0-1.4,0c0,0-0.1,0.1-0.1,0.2C41.5,234.4,41.4,235.7,41.2,237z"/>
	<path class="st10" d="M11,238.5c0.1-0.6,0.1-1.2,0.2-1.7c0.2-1.5,0.4-3,0.6-4.5c0-0.4,0.2-0.7,0.6-0.8c1.6-0.4,3.2-0.6,4.8-0.3
		c1.1,0.2,1.5,0.8,1.4,1.9c-0.1,1.2-0.3,2.4-0.4,3.6c-0.1,0.5-0.1,1-0.2,1.5c0,0.3-0.1,0.4-0.4,0.4c-0.6,0-1.3,0-1.9,0
		c-0.3,0-0.4-0.1-0.3-0.4c0.2-1.4,0.3-2.7,0.5-4.1c0.2-1.2,0-1.4-1.2-1.3c-0.2,0-0.3,0.1-0.4,0.3c-0.2,1.7-0.4,3.3-0.6,5
		c0,0.3-0.1,0.4-0.4,0.4C12.5,238.5,11.8,238.5,11,238.5z"/>
	<path class="st10" d="M23.3,231.1c0.6,0.1,1.2,0.2,1.7,0.3c0.9,0.3,1.4,0.9,1.5,1.9c0.1,1,0,2-0.3,2.9c-0.4,1.4-1.3,2.2-2.7,2.3
		c-0.8,0.1-1.7,0.1-2.5-0.1c-1.2-0.2-1.7-0.9-1.8-2.1c-0.1-1.1,0.1-2.1,0.5-3.1c0.5-1.4,1.6-1.9,3-2
		C22.9,231.1,23.1,231.2,23.3,231.1C23.3,231.1,23.3,231.1,23.3,231.1z M21.7,235.7c0,1,0.2,1.3,1,1.3c0.5,0,0.8-0.3,0.8-0.8
		c0.1-0.8,0.3-1.6,0.3-2.4c0.1-0.8-0.4-1.1-1.2-1c-0.5,0.1-0.6,0.5-0.7,0.9C21.9,234.3,21.9,235,21.7,235.7z"/>
	<path class="st10" d="M49.1,235.9c-0.1,0.6,0.2,1,0.8,1.1c0.8,0.2,1.6,0.1,2.3-0.1c0.7-0.2,0.7-0.2,0.7,0.5c0.1,0.8,0.1,0.8-0.7,1
		c-1.3,0.3-2.6,0.4-3.9,0.1c-1.1-0.3-1.6-1-1.8-2.1c-0.1-1,0-2.1,0.4-3c0.5-1.3,1.4-2,2.7-2.1c0.9-0.1,1.8-0.1,2.7,0.2
		c1,0.3,1.5,1,1.4,2.2c0,1.1-0.5,1.7-1.5,2c-0.8,0.2-1.7,0.2-2.5,0.3C49.5,236,49.3,235.9,49.1,235.9z M49.1,234.7
		c0,0,0.1,0.1,0.1,0.1c0.5-0.1,1.1-0.1,1.6-0.2c0.5-0.1,0.6-0.5,0.6-1c-0.1-0.4-0.3-0.6-0.7-0.7c-0.5-0.1-1,0-1.2,0.4
		C49.3,233.7,49.2,234.2,49.1,234.7z"/>
	<path class="st10" d="M30.1,237c0.3,0.1,0.4-0.1,0.5-0.3c0.5-1.7,1-3.3,1.5-5c0.1-0.4,0.3-0.5,0.6-0.5c0.6,0,1.1,0,1.7,0
		c0.5,0,0.6,0.1,0.4,0.6c-0.6,1.5-1.1,2.9-1.7,4.3c-0.3,0.7-0.6,1.4-0.8,2.1c-0.1,0.3-0.3,0.4-0.5,0.4c-1.1,0-2.2,0-3.4,0
		c-0.2,0-0.3-0.1-0.4-0.3c-0.3-2.2-0.6-4.4-0.9-6.6c0-0.4,0.1-0.5,0.5-0.5c0.6,0,1.2,0,1.8,0c0.3,0,0.5,0.1,0.5,0.5
		c0.1,1.7,0.2,3.4,0.3,5.1C30,236.9,30,236.9,30.1,237z"/>
	<path class="st10" d="M57.5,231.3c0.5,0,1,0,1.5,0c0.3,0,0.4,0.1,0.4,0.4c-0.1,0.3-0.1,0.7-0.1,1c0,0.3-0.2,0.4-0.5,0.4
		c-0.4,0-0.8,0-1.2,0c-0.1,0-0.3,0.1-0.3,0.2c-0.1,0.9-0.3,1.8-0.4,2.7c-0.1,0.7,0.1,0.8,0.8,0.8c0.2,0,0.4,0,0.5,0
		c0.4-0.1,0.5,0.1,0.5,0.4c0,1.3,0.3,1.2-1.1,1.4c-0.7,0.1-1.4,0.1-2.1,0c-0.9-0.1-1.5-0.8-1.4-1.7c0.1-1.1,0.2-2.2,0.4-3.4
		c0.1-1.2,0.3-2.4,0.5-3.7c0.1-0.8,0.1-0.8,0.8-0.9c0.5-0.1,1-0.2,1.5-0.2c0.3-0.1,0.5,0,0.4,0.4C57.7,229.9,57.6,230.6,57.5,231.3z
		"/>
	<path class="st10" d="M36,238.7c-0.3,0-0.6,0-0.9,0c-0.4,0-0.5-0.1-0.4-0.5c0.2-1.6,0.4-3.1,0.6-4.7c0.1-0.6,0.2-1.2,0.2-1.8
		c0-0.3,0.2-0.5,0.5-0.5c0.6,0,1.2,0,1.8,0c0.3,0,0.4,0.1,0.4,0.4c-0.3,2.2-0.6,4.4-0.8,6.6c0,0.3-0.2,0.5-0.5,0.4
		C36.6,238.7,36.3,238.7,36,238.7z"/>
	<path class="st10" d="M37.1,230.5c-0.3,0-0.6,0-0.9,0c-0.3,0-0.5-0.2-0.4-0.5c0.1-0.6,0.2-1.1,0.2-1.7c0-0.3,0.2-0.4,0.5-0.4
		c0.6,0,1.2,0,1.7,0c0.3,0,0.5,0.1,0.4,0.5c-0.1,0.5-0.1,1-0.2,1.6c0,0.4-0.3,0.6-0.6,0.5C37.6,230.5,37.4,230.5,37.1,230.5
		C37.1,230.5,37.1,230.5,37.1,230.5z"/>
</g>
<g>
	<path class="st12" d="M28.9,378.6c-0.1,0.1-0.3,0.1-0.4,0.2c-0.5,0.2-0.6-0.1-0.6-0.3c0-0.1,0-0.3,0-0.6v-2.7H29l0.9-2.3h-2V370
		l-2.8,0.9v1.9h-0.9v2.3h0.9v3c0,0.7,0,1.2,0.1,1.5c0.1,0.4,0.2,0.7,0.3,0.9c0.2,0.3,0.4,0.5,0.8,0.6c0.3,0.1,0.7,0.2,1.1,0.2
		c0.7,0,1.4-0.2,2-0.6L28.9,378.6L28.9,378.6z"/>
	<path class="st79" d="M54.2,377c0,2.5-2,4.5-4.5,4.5c-2.5,0-4.5-2-4.5-4.5c0-2.5,2-4.5,4.5-4.5C52.2,372.5,54.2,374.5,54.2,377"/>
	<path class="st80" d="M47,374.2l3.1,1.7l2.6-1.7l-1.7,2.6l1.7,3.1l-3.1-1.7l-2.6,1.7l1.7-2.6L47,374.2z"/>
	<path class="st12" d="M11.7,379c-0.9,0-1.7-0.9-1.7-2s0.8-2,1.7-2s1.7,0.9,1.7,2S12.7,379,11.7,379 M14.7,373.8
		c-0.7-0.8-1.6-1.1-2.6-1.1c-0.7,0-1.3,0.2-1.9,0.6v-3.4l-2.8,1.3v10.1h2.6v-0.6c0.2,0.1,0.4,0.3,0.6,0.4c0.5,0.2,1,0.4,1.5,0.4
		c1,0,1.9-0.4,2.6-1.2c0.7-0.8,1-1.9,1-3.3C15.7,375.6,15.4,374.6,14.7,373.8 M19.4,375.1c0.2-0.3,0.5-0.5,0.8-0.5
		c0.3,0,0.6,0.1,0.8,0.4c0.2,0.2,0.3,0.5,0.3,0.9h-2.3C19.1,375.7,19.2,375.4,19.4,375.1L19.4,375.1z M23.6,378.4h-2.1
		c-0.1,0.3-0.3,0.5-0.6,0.6c-0.1,0.1-0.3,0.2-0.6,0.2c-0.4,0-0.7-0.1-0.9-0.4c0,0,0,0,0,0c-0.3-0.3-0.4-0.7-0.4-1.1h2.7c0,0,0,0,0,0
		h2.5v0c0-1.6-0.3-2.9-1-3.7c-0.7-0.8-1.7-1.3-3-1.3c-1.1,0-2.1,0.4-2.8,1.2c-0.7,0.8-1.1,1.9-1.1,3.2c0,1.1,0.3,2.1,0.8,2.9
		c0.7,1,1.8,1.5,3.3,1.5c0.9,0,1.7-0.2,2.3-0.6c0.6-0.4,1.1-1.1,1.4-1.9l0.1-0.4L23.6,378.4L23.6,378.4z M44.6,374.9
		c-0.1-0.4-0.3-0.8-0.5-1.1c-0.2-0.3-0.6-0.5-0.9-0.7c-0.4-0.2-0.8-0.2-1.4-0.2c-0.4,0-0.8,0.1-1.2,0.2c-0.3,0.1-0.6,0.3-0.9,0.5
		v-3.7l-2.9,1v10.4h2.9V377c0-0.3,0-0.5,0.1-0.7c0.1-0.3,0.2-0.5,0.4-0.6c0.2-0.1,0.4-0.2,0.7-0.2c0.3,0,0.5,0.1,0.7,0.3
		c0.2,0.2,0.3,0.6,0.3,1v4.6h2.9v-5.1C44.7,375.8,44.7,375.3,44.6,374.9 M60,377c0,0.7-0.1,1.2-0.3,1.5c-0.2,0.3-0.5,0.4-0.9,0.4
		c-0.2,0-0.4-0.1-0.6-0.2c-0.2-0.1-0.4-0.2-0.5-0.4v-2.7c0.2-0.2,0.3-0.3,0.5-0.4c0.2-0.1,0.4-0.2,0.6-0.2c0.3,0,0.6,0.1,0.8,0.4
		C59.9,375.9,60,376.4,60,377 M62.7,375.1c-0.2-0.6-0.4-1-0.7-1.4c-0.3-0.4-0.6-0.6-1-0.8c-0.7-0.3-1.5-0.4-2.4,0
		c-0.3,0.1-0.6,0.3-0.9,0.5v-0.6h-2.9v11.2l0.2-0.1c0.4-0.2,0.9-0.3,1.3-0.5c0.4-0.2,0.9-0.3,1.3-0.5l0.1,0v-2.3
		c0.5,0.4,1.1,0.6,1.8,0.6c0.4,0,0.8-0.1,1.2-0.2c0.4-0.2,0.8-0.4,1.1-0.8c0.3-0.3,0.6-0.8,0.8-1.3c0.2-0.5,0.3-1.2,0.3-1.9
		C63,376.4,62.9,375.7,62.7,375.1 M36.2,378.6c0-0.4-0.1-0.8-0.2-1.1c-0.1-0.3-0.3-0.6-0.6-0.8c-0.2-0.2-0.5-0.4-0.9-0.5
		c-0.3-0.1-0.8-0.3-1.2-0.4c-0.4-0.1-0.5-0.2-0.6-0.2c-0.1-0.1-0.1-0.1-0.1-0.2c0-0.1,0-0.2,0.1-0.2c0.1-0.1,0.2-0.1,0.4-0.1
		c0.2,0,0.4,0,0.8,0.1c0.3,0.1,0.7,0.2,1.1,0.4l0.2,0.1l0.7-2.2l-0.1-0.1c-0.5-0.2-0.9-0.4-1.4-0.5c-0.5-0.1-1-0.2-1.5-0.1
		c-1,0-1.7,0.3-2.2,0.9c-0.5,0.5-0.7,1.2-0.7,2c0,0.4,0.1,0.7,0.2,0.9c0.1,0.3,0.3,0.5,0.5,0.7c0.2,0.2,0.5,0.4,0.8,0.5
		c0.3,0.1,0.7,0.3,1.2,0.4c0.3,0.1,0.6,0.2,0.7,0.3c0.1,0.1,0.2,0.2,0.2,0.4c0,0.1,0,0.2-0.1,0.3c-0.1,0.1-0.3,0.1-0.5,0.1
		c-0.3,0-0.6,0-0.9-0.1c-0.4-0.1-0.8-0.3-1.2-0.5l-0.2-0.1l-0.7,2.1l0.1,0.1c0.5,0.3,1,0.5,1.5,0.6c0.5,0.1,0.9,0.2,1.3,0.2
		c0.1,0,0.2,0,0.2,0c0.5,0,0.9-0.1,1.3-0.2c0.4-0.1,0.7-0.3,1-0.6c0.3-0.2,0.5-0.5,0.6-0.9C36.1,379.4,36.2,379,36.2,378.6"/>
</g>
<path class="st81" d="M70.1,431c-23.1,0-46.1,0-69.2,0c-0.7,0-0.7-0.2-0.7-0.8c0-11.2,0-22.3,0-33.5c0-0.6,0.1-0.8,0.7-0.8
	c23.1,0,46.1,0,69.2,0c0.2,0.3,0.1,0.6,0.1,0.9c0,11.1,0,22.2,0,33.3C70.2,430.4,70.3,430.7,70.1,431z"/>
<g id="g10" transform="matrix(1.3333333,0,0,-1.3333333,0,151.66667)">
	<g id="g12" transform="scale(0.1)">
		<path id="path16" class="st10" d="M62.7-2000.9c-0.3-0.3-1.1-0.5-2.4-0.5H44.4c-1.7,0-2.4,0.8-2.1,2.3l12.9,55
			c0.6,2.7,1.6,5.3,3,7.9c1.4,2.6,3.1,4.9,5.3,6.8c2.1,2,4.7,3.6,7.8,4.8c3,1.2,6.6,1.8,10.5,1.8h34.2c0.9,0,1.4-0.1,1.6-0.4
			c0.2-0.3,0.1-1-0.1-2.3l-3-12.7c-0.2-1-0.5-1.6-0.9-2c-0.4-0.3-1-0.5-1.8-0.5H84c-1.5,0-2.7-0.2-3.7-0.6c-1-0.4-1.8-0.9-2.4-1.5
			c-0.6-0.6-1.1-1.3-1.4-2c-0.3-0.7-0.6-1.5-0.8-2.2l-1.6-7h29.5c0.9,0,1.4-0.2,1.6-0.4c0.2-0.3,0.1-1.1-0.2-2.4l-2.7-11.7
			c-0.4-1.7-1.3-2.6-2.7-2.6H70.1l-6.6-28.1C63.3-2000,63.1-2000.6,62.7-2000.9"/>
		<path id="path18" class="st10" d="M162.5-1962c0.6,2.9,1,5.7,1.2,8.4c0.2,2.7,0.1,5-0.5,6.9c-0.5,1.9-1.5,3.5-3,4.7
			c-1.4,1.2-3.5,1.7-6.1,1.7c-2.2,0-4.2-0.6-6.1-1.7c-1.9-1.1-3.6-2.6-5.1-4.6c-1.5-1.9-2.8-4.1-3.9-6.7c-1.1-2.5-2-5.2-2.7-8
			c-0.8-3.4-1.3-6.6-1.5-9.3c-0.2-2.8,0-5.1,0.6-7c0.6-1.9,1.6-3.4,3.1-4.4c1.5-1.1,3.5-1.6,6-1.6c2.5,0,4.7,0.6,6.6,1.7
			c1.9,1.2,3.6,2.7,5,4.7c1.4,2,2.7,4.3,3.7,6.9C161-1967.6,161.8-1964.9,162.5-1962 M184.9-1961.9c-1.5-6.3-3.5-11.9-6-17
			c-2.5-5-5.6-9.3-9.3-12.8c-3.7-3.5-8.1-6.2-13.1-8.1c-5-1.9-10.7-2.8-17.1-2.8c-6.1,0-11.1,0.9-15.1,2.7c-4,1.8-7,4.5-9.1,8
			c-2,3.5-3.2,7.7-3.4,12.8c-0.2,5,0.4,10.7,1.9,17c1.4,6.1,3.5,11.7,6.2,16.7c2.7,5,6,9.3,9.7,12.9c3.8,3.6,8.1,6.3,13,8.2
			c4.9,1.9,10.2,2.9,16.1,2.9c6.1,0,11.1-1,15.1-2.9c4-1.9,7.1-4.6,9.2-8.1c2.1-3.5,3.3-7.8,3.6-12.8
			C186.9-1950.2,186.3-1955.8,184.9-1961.9"/>
		<path id="path20" class="st10" d="M315.8-1975.7c0.5,2.2,0.3,4-0.7,5.3c-1,1.4-2.7,2.1-5.2,2.1h-13.2l-3.4-14.7h13.2
			c1.5,0,2.8,0.2,3.9,0.7c1.1,0.5,2,1.1,2.8,1.8c0.8,0.8,1.4,1.5,1.8,2.4C315.3-1977.4,315.6-1976.6,315.8-1975.7 M300.7-1951.7
			h11.7c1.5,0,3,0.4,4.4,1.1c1.4,0.8,2.4,2.2,2.9,4.4c0.4,1.7,0.2,3-0.6,3.9c-0.8,0.9-2.1,1.3-3.8,1.3h-12.2L300.7-1951.7z
			 M330.2-1958.4c1.9-0.9,3.4-2,4.5-3.4c1.1-1.4,2-2.9,2.5-4.6c0.5-1.7,0.8-3.4,0.8-5.3c0-1.8-0.2-3.6-0.7-5.4
			c-0.8-3.6-2.3-6.9-4.4-9.8c-2.1-3-4.6-5.5-7.6-7.6c-3-2.1-6.3-3.8-9.9-4.9c-3.6-1.2-7.4-1.7-11.3-1.7h-29.2
			c-3.1,0-4.9,0.6-5.5,1.7c-0.6,1.2-0.6,3.1,0,5.7l14.9,63.8c0.6,2.5,1.5,4.3,2.7,5.6c1.2,1.2,3.3,1.9,6.4,1.9h29.2
			c3.4,0,6.4-0.4,9.2-1.1c2.7-0.8,5-2,6.8-3.6c1.8-1.7,3-3.8,3.7-6.3c0.7-2.5,0.6-5.6-0.3-9.2c-0.7-2.9-2.1-5.7-4.3-8.5
			c-2.2-2.7-4.7-4.9-7.4-6.4L330.2-1958.4"/>
		<path id="path22" class="st10" d="M397.3-2001.4h-34.7c-4.5,0-8,0.6-10.5,1.9c-2.5,1.3-4.3,2.9-5.5,5c-1.1,2.1-1.7,4.4-1.7,6.9
			c0,2.5,0.3,5.1,0.9,7.5l8.4,35.9c0.6,2.7,1.6,5.3,3,7.9c1.4,2.6,3.1,4.9,5.3,6.8c2.1,2,4.8,3.6,7.8,4.8c3,1.2,6.6,1.8,10.5,1.8
			h33.1c0.9,0,1.4-0.1,1.6-0.4c0.2-0.3,0.1-1-0.1-2.3l-3-12.7c-0.2-1-0.5-1.6-0.9-2c-0.4-0.3-1-0.5-1.8-0.5H383
			c-1.5,0-2.8-0.2-3.7-0.6c-1-0.4-1.8-0.9-2.4-1.5c-0.6-0.6-1-1.3-1.4-2c-0.3-0.7-0.6-1.5-0.8-2.2l-1.1-4.7h30.1
			c0.9,0,1.4-0.2,1.6-0.4c0.2-0.3,0.1-1.1-0.2-2.4l-2.7-11.7c-0.4-1.7-1.3-2.6-2.7-2.6h-30.1l-2-8.4c-0.3-1.4-0.4-2.6-0.3-3.4
			c0.1-0.8,0.5-1.4,1-1.8c0.5-0.4,1.2-0.7,1.9-0.8c0.8-0.1,1.7-0.2,2.7-0.2h28.5c0.9,0,1.4-0.1,1.6-0.4c0.2-0.3,0.2-1-0.1-2.3
			l-3-12.7C399.6-2000.5,398.7-2001.4,397.3-2001.4"/>
		<path id="path24" class="st10" d="M481.4-1940.6h-19.2l-13.7-58.4c-0.2-0.9-0.5-1.5-0.8-1.9c-0.4-0.3-1.2-0.5-2.4-0.5h-16
			c-1.7,0-2.4,0.8-2,2.4l13.7,58.4h-18.8c-1.6,0-2.2,0.9-1.8,2.6l2.9,12.6c0.3,1.3,0.6,2,1.1,2.3c0.4,0.3,1,0.4,1.9,0.4h59.2
			c0.9,0,1.5-0.1,1.8-0.4c0.3-0.3,0.3-1,0-2.3l-2.9-12.6C483.9-1939.7,482.9-1940.6,481.4-1940.6"/>
		<path id="path26" class="st10" d="M216.5-1958.8l-9.6-40.2c-0.2-0.9-0.5-1.5-0.8-1.9c-0.3-0.3-1.2-0.5-2.4-0.5h-15.9
			c-1.7,0-2.4,0.8-2,2.4l16.1,67.4c0.8,3.5,2,5.9,3.4,7.1c1.4,1.2,3.7,1.8,6.9,1.8h5.8c1.1,0,2.1-0.1,2.9-0.2
			c0.8-0.1,1.5-0.3,2.1-0.7c0.6-0.3,1.2-0.8,1.7-1.5c0.5-0.7,1-1.6,1.6-2.7l10.3-24l5.5-13.7h0.8l9.6,40.4c0.2,0.9,0.5,1.5,0.8,1.9
			c0.3,0.3,1.2,0.5,2.4,0.5h16c1.7,0,2.4-0.8,2-2.4l-16.1-67.4c-0.6-2.5-1.6-4.7-3.1-6.3c-1.4-1.7-3.9-2.5-7.2-2.5h-5.8
			c-1.1,0-2,0.1-2.8,0.2c-0.8,0.1-1.6,0.3-2.2,0.7c-0.6,0.3-1.2,0.8-1.8,1.5c-0.5,0.7-1.1,1.6-1.6,2.7l-10.2,23.6l-5.7,13.9H216.5"
			/>
	</g>
</g>
</svg>
